M48
; DRILL file {KiCad 8.0.9-8.0.9-0~ubuntu24.04.1} date 2025-04-27T17:07:32+0530
; FORMAT={-:-/ absolute / inch / decimal}
; #@! TF.CreationDate,2025-04-27T17:07:32+05:30
; #@! TF.GenerationSoftware,Kicad,Pcbnew,8.0.9-8.0.9-0~ubuntu24.04.1
; #@! TF.FileFunction,Plated,1,2,PTH
FMAT,2
INCH
; #@! TA.AperFunction,Plated,PTH,ViaDrill
T1C0.0118
; #@! TA.AperFunction,Plated,PTH,ComponentDrill
T2C0.0394
%
G90
G05
T1
X0.1031Y-0.0949
X0.1031Y-1.5122
X0.1449Y-0.4185
X0.1449Y-1.8358
X0.2012Y-1.1303
X0.2012Y-2.5476
X0.2427Y-0.3183
X0.2427Y-1.7356
X0.3079Y-1.0953
X0.3079Y-2.5126
X0.3673Y-0.9169
X0.3673Y-2.3343
X0.3744Y-0.8563
X0.3744Y-2.2736
X0.3953Y-0.4315
X0.3953Y-1.8488
X0.4185Y-0.937
X0.4185Y-2.3543
X0.4331Y-0.8752
X0.4331Y-2.2925
X0.4707Y-0.7506
X0.4707Y-2.1679
X0.4772Y-0.378
X0.4772Y-1.7953
X0.5346Y-0.2661
X0.5346Y-0.3465
X0.5346Y-1.6835
X0.5346Y-1.7638
X0.6197Y-0.0642
X0.6197Y-0.1665
X0.6197Y-1.4815
X0.6197Y-1.5839
X0.7059Y-0.0642
X0.7059Y-1.4815
X0.7362Y-0.3992
X0.7362Y-1.8165
X0.7969Y-0.0642
X0.7969Y-0.1665
X0.7969Y-1.4815
X0.7969Y-1.5839
X1.048Y-0.0949
X1.048Y-1.5122
X1.0898Y-0.4185
X1.0898Y-1.8358
X1.1461Y-1.1303
X1.1461Y-2.5476
X1.1876Y-0.3183
X1.1876Y-1.7356
X1.2528Y-1.0953
X1.2528Y-2.5126
X1.3122Y-0.9169
X1.3122Y-2.3343
X1.3193Y-0.8563
X1.3193Y-2.2736
X1.3402Y-0.4315
X1.3402Y-1.8488
X1.3634Y-0.937
X1.3634Y-2.3543
X1.378Y-0.8752
X1.378Y-2.2925
X1.4156Y-0.7506
X1.4156Y-2.1679
X1.422Y-0.378
X1.422Y-1.7953
X1.4795Y-0.2661
X1.4795Y-0.3465
X1.4795Y-1.6835
X1.4795Y-1.7638
X1.5646Y-0.0642
X1.5646Y-0.1665
X1.5646Y-1.4815
X1.5646Y-1.5839
X1.6508Y-0.0642
X1.6508Y-1.4815
X1.6811Y-0.3992
X1.6811Y-1.8165
X1.7417Y-0.0642
X1.7417Y-0.1665
X1.7417Y-1.4815
X1.7417Y-1.5839
T2
X0.1134Y-0.989
X0.1134Y-1.089
X0.1134Y-1.189
X0.1134Y-2.4063
X0.1134Y-2.5063
X0.1134Y-2.6063
X0.4244Y-1.089
X0.4244Y-1.189
X0.4244Y-2.5063
X0.4244Y-2.6063
X0.5244Y-1.089
X0.5244Y-1.189
X0.5244Y-2.5063
X0.5244Y-2.6063
X0.6244Y-1.189
X0.6244Y-2.6063
X0.6244Y-1.089
X0.6244Y-2.5063
X0.715Y-0.7083
X0.715Y-0.8083
X0.715Y-0.9083
X0.715Y-2.1256
X0.715Y-2.2256
X0.715Y-2.3256
X1.0583Y-0.989
X1.0583Y-1.089
X1.0583Y-1.189
X1.0583Y-2.4063
X1.0583Y-2.5063
X1.0583Y-2.6063
X1.3693Y-1.089
X1.3693Y-1.189
X1.3693Y-2.5063
X1.3693Y-2.6063
X1.4693Y-1.089
X1.4693Y-1.189
X1.4693Y-2.5063
X1.4693Y-2.6063
X1.5693Y-1.189
X1.5693Y-2.6063
X1.5693Y-1.089
X1.5693Y-2.5063
X1.6598Y-0.7083
X1.6598Y-0.8083
X1.6598Y-0.9083
X1.6598Y-2.1256
X1.6598Y-2.2256
X1.6598Y-2.3256
M30
