%TF.GenerationSoftware,KiCad,Pcbnew,8.0.9-8.0.9-0~ubuntu24.04.1*%
%TF.CreationDate,2025-04-27T17:07:27+05:30*%
%TF.ProjectId,Panel,50616e65-6c2e-46b6-9963-61645f706362,rev?*%
%TF.SameCoordinates,PX77afa60PY1312d00*%
%TF.FileFunction,Profile,NP*%
%FSLAX46Y46*%
G04 Gerber Fmt 4.6, Leading zero omitted, Abs format (unit mm)*
G04 Created by KiCad (PCBNEW 8.0.9-8.0.9-0~ubuntu24.04.1) date 2025-04-27 17:07:27*
%MOMM*%
%LPD*%
G01*
G04 APERTURE LIST*
%TA.AperFunction,Profile*%
%ADD10C,0.100000*%
%TD*%
G04 APERTURE END LIST*
D10*
X23001000Y-45833333D02*
X22999000Y-45833333D01*
X0Y0D02*
X0Y-34000000D01*
X24000000Y-57166666D02*
X23001000Y-57166666D01*
X22000000Y-24166666D02*
X22999000Y-24166666D01*
X33500000Y-34999500D02*
X33500000Y-35001500D01*
X22000000Y-34000000D02*
X22000000Y-24166666D01*
X24000000Y-24166666D02*
X24000000Y-34000000D01*
X24000000Y-48833333D02*
X24000000Y-57166666D01*
X9500000Y-36000000D02*
X0Y-36000000D01*
X12500000Y-34000000D02*
X22000000Y-34000000D01*
X12500000Y-34999500D02*
X12500000Y-34000000D01*
X46000000Y-36000000D02*
X36500000Y-36000000D01*
X36500000Y-36000000D02*
X36500000Y-35001500D01*
X22999000Y-45833333D02*
X22000000Y-45833333D01*
X46000000Y0D02*
X24000000Y0D01*
X24000000Y0D02*
X24000000Y-9833333D01*
X36500000Y-35001500D02*
X36500000Y-34999500D01*
X22000000Y-60166666D02*
X22999000Y-60166666D01*
X23001000Y-60166666D02*
X24000000Y-60166666D01*
X22000000Y-21166666D02*
X22000000Y-12833333D01*
X22999000Y-48833333D02*
X23001000Y-48833333D01*
X33500000Y-36000000D02*
X24000000Y-36000000D01*
X9500000Y-35001500D02*
X9500000Y-36000000D01*
X9500000Y-34999500D02*
X9500000Y-35001500D01*
X33500000Y-35001500D02*
X33500000Y-36000000D01*
X22999000Y-21166666D02*
X22000000Y-21166666D01*
X22000000Y-45833333D02*
X22000000Y-36000000D01*
X24000000Y-45833333D02*
X23001000Y-45833333D01*
X9500000Y-34000000D02*
X9500000Y-34999500D01*
X23001000Y-21166666D02*
X22999000Y-21166666D01*
X22999000Y-60166666D02*
X23001000Y-60166666D01*
X22999000Y-12833333D02*
X23001000Y-12833333D01*
X22000000Y-48833333D02*
X22999000Y-48833333D01*
X24000000Y-12833333D02*
X24000000Y-21166666D01*
X22999000Y-9833333D02*
X22000000Y-9833333D01*
X36500000Y-34999500D02*
X36500000Y-34000000D01*
X0Y-70000000D02*
X22000000Y-70000000D01*
X0Y-34000000D02*
X9500000Y-34000000D01*
X33500000Y-34000000D02*
X33500000Y-34999500D01*
X46000000Y-70000000D02*
X46000000Y-36000000D01*
X22000000Y-12833333D02*
X22999000Y-12833333D01*
X22999000Y-24166666D02*
X23001000Y-24166666D01*
X24000000Y-60166666D02*
X24000000Y-70000000D01*
X23001000Y-9833333D02*
X22999000Y-9833333D01*
X23001000Y-48833333D02*
X24000000Y-48833333D01*
X46000000Y-34000000D02*
X46000000Y0D01*
X22000000Y0D02*
X0Y0D01*
X24000000Y-34000000D02*
X33500000Y-34000000D01*
X23001000Y-12833333D02*
X24000000Y-12833333D01*
X22000000Y-36000000D02*
X12500000Y-36000000D01*
X36500000Y-34000000D02*
X46000000Y-34000000D01*
X0Y-36000000D02*
X0Y-70000000D01*
X22999000Y-57166666D02*
X22000000Y-57166666D01*
X23001000Y-24166666D02*
X24000000Y-24166666D01*
X24000000Y-9833333D02*
X23001000Y-9833333D01*
X24000000Y-21166666D02*
X23001000Y-21166666D01*
X12500000Y-36000000D02*
X12500000Y-35001500D01*
X12500000Y-35001500D02*
X12500000Y-34999500D01*
X24000000Y-70000000D02*
X46000000Y-70000000D01*
X22000000Y-9833333D02*
X22000000Y0D01*
X23001000Y-57166666D02*
X22999000Y-57166666D01*
X22000000Y-70000000D02*
X22000000Y-60166666D01*
X22000000Y-57166666D02*
X22000000Y-48833333D01*
X24000000Y-36000000D02*
X24000000Y-45833333D01*
M02*
