M48
; DRILL file {KiCad 8.0.9-8.0.9-0~ubuntu24.04.1} date 2025-04-27T19:31:57+0530
; FORMAT={-:-/ absolute / inch / decimal}
; #@! TF.CreationDate,2025-04-27T19:31:57+05:30
; #@! TF.GenerationSoftware,Kicad,Pcbnew,8.0.9-8.0.9-0~ubuntu24.04.1
; #@! TF.FileFunction,Plated,1,2,PTH
FMAT,2
INCH
; #@! TA.AperFunction,Plated,PTH,ViaDrill
T1C0.0118
; #@! TA.AperFunction,Plated,PTH,ComponentDrill
T2C0.0394
%
G90
G05
T1
X6.4193Y-2.998
X6.461Y-3.3217
X6.5173Y-4.0335
X6.5589Y-3.2215
X6.624Y-3.9984
X6.6835Y-3.8201
X6.6906Y-3.7594
X6.7114Y-3.3346
X6.7346Y-3.8402
X6.7492Y-3.7783
X6.7868Y-3.6537
X6.7933Y-3.2811
X6.8508Y-3.1693
X6.8508Y-3.2496
X6.9358Y-2.9673
X6.9358Y-3.0697
X6.9622Y-3.302
X7.022Y-2.9673
X7.113Y-2.9673
X7.113Y-3.0697
T2
X6.4295Y-3.8921
X6.4295Y-3.9921
X6.4295Y-4.0921
X6.7406Y-3.9921
X6.7406Y-4.0921
X6.8406Y-3.9921
X6.8406Y-4.0921
X6.9406Y-4.0921
X6.9406Y-3.9921
X7.0311Y-3.6114
X7.0311Y-3.7114
X7.0311Y-3.8114
M30
