%TF.GenerationSoftware,KiCad,Pcbnew,8.0.9-8.0.9-0~ubuntu24.04.1*%
%TF.CreationDate,2025-04-27T19:31:59+05:30*%
%TF.ProjectId,ch552ICSPUPDI,63683535-3249-4435-9350-555044492e6b,rev?*%
%TF.SameCoordinates,Original*%
%TF.FileFunction,Drillmap*%
%TF.FilePolarity,Positive*%
%FSLAX45Y45*%
G04 Gerber Fmt 4.5, Leading zero omitted, Abs format (unit mm)*
G04 Created by KiCad (PCBNEW 8.0.9-8.0.9-0~ubuntu24.04.1) date 2025-04-27 19:31:59*
%MOMM*%
%LPD*%
G01*
G04 APERTURE LIST*
%ADD10C,0.100000*%
%ADD11C,0.200000*%
G04 APERTURE END LIST*
D10*
X16043000Y-7374000D02*
X18243000Y-7374000D01*
X18243000Y-10774000D01*
X16043000Y-10774000D01*
X16043000Y-7374000D01*
D11*
D10*
X16290000Y-7600000D02*
X16320000Y-7630000D01*
X16320000Y-7600000D02*
X16290000Y-7630000D01*
X16396000Y-8422000D02*
X16426000Y-8452000D01*
X16426000Y-8422000D02*
X16396000Y-8452000D01*
X16539000Y-10230000D02*
X16569000Y-10260000D01*
X16569000Y-10230000D02*
X16539000Y-10260000D01*
X16644500Y-8167500D02*
X16674500Y-8197500D01*
X16674500Y-8167500D02*
X16644500Y-8197500D01*
X16810000Y-10141000D02*
X16840000Y-10171000D01*
X16840000Y-10141000D02*
X16810000Y-10171000D01*
X16961000Y-9688000D02*
X16991000Y-9718000D01*
X16991000Y-9688000D02*
X16961000Y-9718000D01*
X16979000Y-9534000D02*
X17009000Y-9564000D01*
X17009000Y-9534000D02*
X16979000Y-9564000D01*
X17032000Y-8455000D02*
X17062000Y-8485000D01*
X17062000Y-8455000D02*
X17032000Y-8485000D01*
X17091000Y-9739000D02*
X17121000Y-9769000D01*
X17121000Y-9739000D02*
X17091000Y-9769000D01*
X17128000Y-9582000D02*
X17158000Y-9612000D01*
X17158000Y-9582000D02*
X17128000Y-9612000D01*
X17223500Y-9265500D02*
X17253500Y-9295500D01*
X17253500Y-9265500D02*
X17223500Y-9295500D01*
X17240000Y-8319000D02*
X17270000Y-8349000D01*
X17270000Y-8319000D02*
X17240000Y-8349000D01*
X17386000Y-8035000D02*
X17416000Y-8065000D01*
X17416000Y-8035000D02*
X17386000Y-8065000D01*
X17386000Y-8239000D02*
X17416000Y-8269000D01*
X17416000Y-8239000D02*
X17386000Y-8269000D01*
X17602000Y-7522000D02*
X17632000Y-7552000D01*
X17632000Y-7522000D02*
X17602000Y-7552000D01*
X17602000Y-7782000D02*
X17632000Y-7812000D01*
X17632000Y-7782000D02*
X17602000Y-7812000D01*
X17669000Y-8372000D02*
X17699000Y-8402000D01*
X17699000Y-8372000D02*
X17669000Y-8402000D01*
X17821000Y-7522000D02*
X17851000Y-7552000D01*
X17851000Y-7522000D02*
X17821000Y-7552000D01*
X18052000Y-7522000D02*
X18082000Y-7552000D01*
X18082000Y-7522000D02*
X18052000Y-7552000D01*
X18052000Y-7782000D02*
X18082000Y-7812000D01*
X18082000Y-7782000D02*
X18052000Y-7812000D01*
X16381000Y-9886000D02*
G75*
G02*
X16281000Y-9886000I-50000J0D01*
G01*
X16281000Y-9886000D02*
G75*
G02*
X16381000Y-9886000I50000J0D01*
G01*
X16381000Y-10140000D02*
G75*
G02*
X16281000Y-10140000I-50000J0D01*
G01*
X16281000Y-10140000D02*
G75*
G02*
X16381000Y-10140000I50000J0D01*
G01*
X16381000Y-10394000D02*
G75*
G02*
X16281000Y-10394000I-50000J0D01*
G01*
X16281000Y-10394000D02*
G75*
G02*
X16381000Y-10394000I50000J0D01*
G01*
X17171000Y-10140000D02*
G75*
G02*
X17071000Y-10140000I-50000J0D01*
G01*
X17071000Y-10140000D02*
G75*
G02*
X17171000Y-10140000I50000J0D01*
G01*
X17171000Y-10394000D02*
G75*
G02*
X17071000Y-10394000I-50000J0D01*
G01*
X17071000Y-10394000D02*
G75*
G02*
X17171000Y-10394000I50000J0D01*
G01*
X17425000Y-10140000D02*
G75*
G02*
X17325000Y-10140000I-50000J0D01*
G01*
X17325000Y-10140000D02*
G75*
G02*
X17425000Y-10140000I50000J0D01*
G01*
X17425000Y-10394000D02*
G75*
G02*
X17325000Y-10394000I-50000J0D01*
G01*
X17325000Y-10394000D02*
G75*
G02*
X17425000Y-10394000I50000J0D01*
G01*
X17679000Y-10394000D02*
G75*
G02*
X17579000Y-10394000I-50000J0D01*
G01*
X17579000Y-10394000D02*
G75*
G02*
X17679000Y-10394000I50000J0D01*
G01*
X17679000Y-10140000D02*
G75*
G02*
X17579000Y-10140000I-50000J0D01*
G01*
X17579000Y-10140000D02*
G75*
G02*
X17679000Y-10140000I50000J0D01*
G01*
X17909000Y-9173000D02*
G75*
G02*
X17809000Y-9173000I-50000J0D01*
G01*
X17809000Y-9173000D02*
G75*
G02*
X17909000Y-9173000I50000J0D01*
G01*
X17909000Y-9427000D02*
G75*
G02*
X17809000Y-9427000I-50000J0D01*
G01*
X17809000Y-9427000D02*
G75*
G02*
X17909000Y-9427000I50000J0D01*
G01*
X17909000Y-9681000D02*
G75*
G02*
X17809000Y-9681000I-50000J0D01*
G01*
X17809000Y-9681000D02*
G75*
G02*
X17909000Y-9681000I50000J0D01*
G01*
D11*
X16298777Y-11090484D02*
X16298777Y-10890484D01*
X16298777Y-10890484D02*
X16346396Y-10890484D01*
X16346396Y-10890484D02*
X16374967Y-10900008D01*
X16374967Y-10900008D02*
X16394015Y-10919055D01*
X16394015Y-10919055D02*
X16403539Y-10938103D01*
X16403539Y-10938103D02*
X16413062Y-10976198D01*
X16413062Y-10976198D02*
X16413062Y-11004770D01*
X16413062Y-11004770D02*
X16403539Y-11042865D01*
X16403539Y-11042865D02*
X16394015Y-11061912D01*
X16394015Y-11061912D02*
X16374967Y-11080960D01*
X16374967Y-11080960D02*
X16346396Y-11090484D01*
X16346396Y-11090484D02*
X16298777Y-11090484D01*
X16498777Y-11090484D02*
X16498777Y-10957150D01*
X16498777Y-10995246D02*
X16508301Y-10976198D01*
X16508301Y-10976198D02*
X16517824Y-10966674D01*
X16517824Y-10966674D02*
X16536872Y-10957150D01*
X16536872Y-10957150D02*
X16555920Y-10957150D01*
X16622586Y-11090484D02*
X16622586Y-10957150D01*
X16622586Y-10890484D02*
X16613062Y-10900008D01*
X16613062Y-10900008D02*
X16622586Y-10909531D01*
X16622586Y-10909531D02*
X16632110Y-10900008D01*
X16632110Y-10900008D02*
X16622586Y-10890484D01*
X16622586Y-10890484D02*
X16622586Y-10909531D01*
X16746396Y-11090484D02*
X16727348Y-11080960D01*
X16727348Y-11080960D02*
X16717824Y-11061912D01*
X16717824Y-11061912D02*
X16717824Y-10890484D01*
X16851158Y-11090484D02*
X16832110Y-11080960D01*
X16832110Y-11080960D02*
X16822586Y-11061912D01*
X16822586Y-11061912D02*
X16822586Y-10890484D01*
X17079729Y-11090484D02*
X17079729Y-10890484D01*
X17079729Y-10890484D02*
X17146396Y-11033341D01*
X17146396Y-11033341D02*
X17213063Y-10890484D01*
X17213063Y-10890484D02*
X17213063Y-11090484D01*
X17394015Y-11090484D02*
X17394015Y-10985722D01*
X17394015Y-10985722D02*
X17384491Y-10966674D01*
X17384491Y-10966674D02*
X17365444Y-10957150D01*
X17365444Y-10957150D02*
X17327348Y-10957150D01*
X17327348Y-10957150D02*
X17308301Y-10966674D01*
X17394015Y-11080960D02*
X17374967Y-11090484D01*
X17374967Y-11090484D02*
X17327348Y-11090484D01*
X17327348Y-11090484D02*
X17308301Y-11080960D01*
X17308301Y-11080960D02*
X17298777Y-11061912D01*
X17298777Y-11061912D02*
X17298777Y-11042865D01*
X17298777Y-11042865D02*
X17308301Y-11023817D01*
X17308301Y-11023817D02*
X17327348Y-11014293D01*
X17327348Y-11014293D02*
X17374967Y-11014293D01*
X17374967Y-11014293D02*
X17394015Y-11004770D01*
X17489253Y-10957150D02*
X17489253Y-11157150D01*
X17489253Y-10966674D02*
X17508301Y-10957150D01*
X17508301Y-10957150D02*
X17546396Y-10957150D01*
X17546396Y-10957150D02*
X17565444Y-10966674D01*
X17565444Y-10966674D02*
X17574967Y-10976198D01*
X17574967Y-10976198D02*
X17584491Y-10995246D01*
X17584491Y-10995246D02*
X17584491Y-11052389D01*
X17584491Y-11052389D02*
X17574967Y-11071436D01*
X17574967Y-11071436D02*
X17565444Y-11080960D01*
X17565444Y-11080960D02*
X17546396Y-11090484D01*
X17546396Y-11090484D02*
X17508301Y-11090484D01*
X17508301Y-11090484D02*
X17489253Y-11080960D01*
X17670205Y-11071436D02*
X17679729Y-11080960D01*
X17679729Y-11080960D02*
X17670205Y-11090484D01*
X17670205Y-11090484D02*
X17660682Y-11080960D01*
X17660682Y-11080960D02*
X17670205Y-11071436D01*
X17670205Y-11071436D02*
X17670205Y-11090484D01*
X17670205Y-10966674D02*
X17679729Y-10976198D01*
X17679729Y-10976198D02*
X17670205Y-10985722D01*
X17670205Y-10985722D02*
X17660682Y-10976198D01*
X17660682Y-10976198D02*
X17670205Y-10966674D01*
X17670205Y-10966674D02*
X17670205Y-10985722D01*
D10*
X16008000Y-11404000D02*
X16038000Y-11434000D01*
X16038000Y-11404000D02*
X16008000Y-11434000D01*
D11*
X16336872Y-11310484D02*
X16355920Y-11310484D01*
X16355920Y-11310484D02*
X16374967Y-11320008D01*
X16374967Y-11320008D02*
X16384491Y-11329531D01*
X16384491Y-11329531D02*
X16394015Y-11348579D01*
X16394015Y-11348579D02*
X16403539Y-11386674D01*
X16403539Y-11386674D02*
X16403539Y-11434293D01*
X16403539Y-11434293D02*
X16394015Y-11472388D01*
X16394015Y-11472388D02*
X16384491Y-11491436D01*
X16384491Y-11491436D02*
X16374967Y-11500960D01*
X16374967Y-11500960D02*
X16355920Y-11510484D01*
X16355920Y-11510484D02*
X16336872Y-11510484D01*
X16336872Y-11510484D02*
X16317824Y-11500960D01*
X16317824Y-11500960D02*
X16308301Y-11491436D01*
X16308301Y-11491436D02*
X16298777Y-11472388D01*
X16298777Y-11472388D02*
X16289253Y-11434293D01*
X16289253Y-11434293D02*
X16289253Y-11386674D01*
X16289253Y-11386674D02*
X16298777Y-11348579D01*
X16298777Y-11348579D02*
X16308301Y-11329531D01*
X16308301Y-11329531D02*
X16317824Y-11320008D01*
X16317824Y-11320008D02*
X16336872Y-11310484D01*
X16489253Y-11491436D02*
X16498777Y-11500960D01*
X16498777Y-11500960D02*
X16489253Y-11510484D01*
X16489253Y-11510484D02*
X16479729Y-11500960D01*
X16479729Y-11500960D02*
X16489253Y-11491436D01*
X16489253Y-11491436D02*
X16489253Y-11510484D01*
X16565443Y-11310484D02*
X16689253Y-11310484D01*
X16689253Y-11310484D02*
X16622586Y-11386674D01*
X16622586Y-11386674D02*
X16651158Y-11386674D01*
X16651158Y-11386674D02*
X16670205Y-11396198D01*
X16670205Y-11396198D02*
X16679729Y-11405722D01*
X16679729Y-11405722D02*
X16689253Y-11424769D01*
X16689253Y-11424769D02*
X16689253Y-11472388D01*
X16689253Y-11472388D02*
X16679729Y-11491436D01*
X16679729Y-11491436D02*
X16670205Y-11500960D01*
X16670205Y-11500960D02*
X16651158Y-11510484D01*
X16651158Y-11510484D02*
X16594015Y-11510484D01*
X16594015Y-11510484D02*
X16574967Y-11500960D01*
X16574967Y-11500960D02*
X16565443Y-11491436D01*
X16813063Y-11310484D02*
X16832110Y-11310484D01*
X16832110Y-11310484D02*
X16851158Y-11320008D01*
X16851158Y-11320008D02*
X16860682Y-11329531D01*
X16860682Y-11329531D02*
X16870205Y-11348579D01*
X16870205Y-11348579D02*
X16879729Y-11386674D01*
X16879729Y-11386674D02*
X16879729Y-11434293D01*
X16879729Y-11434293D02*
X16870205Y-11472388D01*
X16870205Y-11472388D02*
X16860682Y-11491436D01*
X16860682Y-11491436D02*
X16851158Y-11500960D01*
X16851158Y-11500960D02*
X16832110Y-11510484D01*
X16832110Y-11510484D02*
X16813063Y-11510484D01*
X16813063Y-11510484D02*
X16794015Y-11500960D01*
X16794015Y-11500960D02*
X16784491Y-11491436D01*
X16784491Y-11491436D02*
X16774967Y-11472388D01*
X16774967Y-11472388D02*
X16765443Y-11434293D01*
X16765443Y-11434293D02*
X16765443Y-11386674D01*
X16765443Y-11386674D02*
X16774967Y-11348579D01*
X16774967Y-11348579D02*
X16784491Y-11329531D01*
X16784491Y-11329531D02*
X16794015Y-11320008D01*
X16794015Y-11320008D02*
X16813063Y-11310484D01*
X17003539Y-11310484D02*
X17022586Y-11310484D01*
X17022586Y-11310484D02*
X17041634Y-11320008D01*
X17041634Y-11320008D02*
X17051158Y-11329531D01*
X17051158Y-11329531D02*
X17060682Y-11348579D01*
X17060682Y-11348579D02*
X17070205Y-11386674D01*
X17070205Y-11386674D02*
X17070205Y-11434293D01*
X17070205Y-11434293D02*
X17060682Y-11472388D01*
X17060682Y-11472388D02*
X17051158Y-11491436D01*
X17051158Y-11491436D02*
X17041634Y-11500960D01*
X17041634Y-11500960D02*
X17022586Y-11510484D01*
X17022586Y-11510484D02*
X17003539Y-11510484D01*
X17003539Y-11510484D02*
X16984491Y-11500960D01*
X16984491Y-11500960D02*
X16974967Y-11491436D01*
X16974967Y-11491436D02*
X16965444Y-11472388D01*
X16965444Y-11472388D02*
X16955920Y-11434293D01*
X16955920Y-11434293D02*
X16955920Y-11386674D01*
X16955920Y-11386674D02*
X16965444Y-11348579D01*
X16965444Y-11348579D02*
X16974967Y-11329531D01*
X16974967Y-11329531D02*
X16984491Y-11320008D01*
X16984491Y-11320008D02*
X17003539Y-11310484D01*
X17155920Y-11510484D02*
X17155920Y-11377150D01*
X17155920Y-11396198D02*
X17165444Y-11386674D01*
X17165444Y-11386674D02*
X17184491Y-11377150D01*
X17184491Y-11377150D02*
X17213063Y-11377150D01*
X17213063Y-11377150D02*
X17232110Y-11386674D01*
X17232110Y-11386674D02*
X17241634Y-11405722D01*
X17241634Y-11405722D02*
X17241634Y-11510484D01*
X17241634Y-11405722D02*
X17251158Y-11386674D01*
X17251158Y-11386674D02*
X17270205Y-11377150D01*
X17270205Y-11377150D02*
X17298777Y-11377150D01*
X17298777Y-11377150D02*
X17317825Y-11386674D01*
X17317825Y-11386674D02*
X17327348Y-11405722D01*
X17327348Y-11405722D02*
X17327348Y-11510484D01*
X17422586Y-11510484D02*
X17422586Y-11377150D01*
X17422586Y-11396198D02*
X17432110Y-11386674D01*
X17432110Y-11386674D02*
X17451158Y-11377150D01*
X17451158Y-11377150D02*
X17479729Y-11377150D01*
X17479729Y-11377150D02*
X17498777Y-11386674D01*
X17498777Y-11386674D02*
X17508301Y-11405722D01*
X17508301Y-11405722D02*
X17508301Y-11510484D01*
X17508301Y-11405722D02*
X17517825Y-11386674D01*
X17517825Y-11386674D02*
X17536872Y-11377150D01*
X17536872Y-11377150D02*
X17565444Y-11377150D01*
X17565444Y-11377150D02*
X17584491Y-11386674D01*
X17584491Y-11386674D02*
X17594015Y-11405722D01*
X17594015Y-11405722D02*
X17594015Y-11510484D01*
X17984491Y-11300960D02*
X17813063Y-11558103D01*
X18241634Y-11310484D02*
X18260682Y-11310484D01*
X18260682Y-11310484D02*
X18279729Y-11320008D01*
X18279729Y-11320008D02*
X18289253Y-11329531D01*
X18289253Y-11329531D02*
X18298777Y-11348579D01*
X18298777Y-11348579D02*
X18308301Y-11386674D01*
X18308301Y-11386674D02*
X18308301Y-11434293D01*
X18308301Y-11434293D02*
X18298777Y-11472388D01*
X18298777Y-11472388D02*
X18289253Y-11491436D01*
X18289253Y-11491436D02*
X18279729Y-11500960D01*
X18279729Y-11500960D02*
X18260682Y-11510484D01*
X18260682Y-11510484D02*
X18241634Y-11510484D01*
X18241634Y-11510484D02*
X18222587Y-11500960D01*
X18222587Y-11500960D02*
X18213063Y-11491436D01*
X18213063Y-11491436D02*
X18203539Y-11472388D01*
X18203539Y-11472388D02*
X18194015Y-11434293D01*
X18194015Y-11434293D02*
X18194015Y-11386674D01*
X18194015Y-11386674D02*
X18203539Y-11348579D01*
X18203539Y-11348579D02*
X18213063Y-11329531D01*
X18213063Y-11329531D02*
X18222587Y-11320008D01*
X18222587Y-11320008D02*
X18241634Y-11310484D01*
X18394015Y-11491436D02*
X18403539Y-11500960D01*
X18403539Y-11500960D02*
X18394015Y-11510484D01*
X18394015Y-11510484D02*
X18384491Y-11500960D01*
X18384491Y-11500960D02*
X18394015Y-11491436D01*
X18394015Y-11491436D02*
X18394015Y-11510484D01*
X18527348Y-11310484D02*
X18546396Y-11310484D01*
X18546396Y-11310484D02*
X18565444Y-11320008D01*
X18565444Y-11320008D02*
X18574968Y-11329531D01*
X18574968Y-11329531D02*
X18584491Y-11348579D01*
X18584491Y-11348579D02*
X18594015Y-11386674D01*
X18594015Y-11386674D02*
X18594015Y-11434293D01*
X18594015Y-11434293D02*
X18584491Y-11472388D01*
X18584491Y-11472388D02*
X18574968Y-11491436D01*
X18574968Y-11491436D02*
X18565444Y-11500960D01*
X18565444Y-11500960D02*
X18546396Y-11510484D01*
X18546396Y-11510484D02*
X18527348Y-11510484D01*
X18527348Y-11510484D02*
X18508301Y-11500960D01*
X18508301Y-11500960D02*
X18498777Y-11491436D01*
X18498777Y-11491436D02*
X18489253Y-11472388D01*
X18489253Y-11472388D02*
X18479729Y-11434293D01*
X18479729Y-11434293D02*
X18479729Y-11386674D01*
X18479729Y-11386674D02*
X18489253Y-11348579D01*
X18489253Y-11348579D02*
X18498777Y-11329531D01*
X18498777Y-11329531D02*
X18508301Y-11320008D01*
X18508301Y-11320008D02*
X18527348Y-11310484D01*
X18784491Y-11510484D02*
X18670206Y-11510484D01*
X18727348Y-11510484D02*
X18727348Y-11310484D01*
X18727348Y-11310484D02*
X18708301Y-11339055D01*
X18708301Y-11339055D02*
X18689253Y-11358103D01*
X18689253Y-11358103D02*
X18670206Y-11367627D01*
X18974968Y-11510484D02*
X18860682Y-11510484D01*
X18917825Y-11510484D02*
X18917825Y-11310484D01*
X18917825Y-11310484D02*
X18898777Y-11339055D01*
X18898777Y-11339055D02*
X18879729Y-11358103D01*
X18879729Y-11358103D02*
X18860682Y-11367627D01*
X19089253Y-11396198D02*
X19070206Y-11386674D01*
X19070206Y-11386674D02*
X19060682Y-11377150D01*
X19060682Y-11377150D02*
X19051158Y-11358103D01*
X19051158Y-11358103D02*
X19051158Y-11348579D01*
X19051158Y-11348579D02*
X19060682Y-11329531D01*
X19060682Y-11329531D02*
X19070206Y-11320008D01*
X19070206Y-11320008D02*
X19089253Y-11310484D01*
X19089253Y-11310484D02*
X19127349Y-11310484D01*
X19127349Y-11310484D02*
X19146396Y-11320008D01*
X19146396Y-11320008D02*
X19155920Y-11329531D01*
X19155920Y-11329531D02*
X19165444Y-11348579D01*
X19165444Y-11348579D02*
X19165444Y-11358103D01*
X19165444Y-11358103D02*
X19155920Y-11377150D01*
X19155920Y-11377150D02*
X19146396Y-11386674D01*
X19146396Y-11386674D02*
X19127349Y-11396198D01*
X19127349Y-11396198D02*
X19089253Y-11396198D01*
X19089253Y-11396198D02*
X19070206Y-11405722D01*
X19070206Y-11405722D02*
X19060682Y-11415246D01*
X19060682Y-11415246D02*
X19051158Y-11434293D01*
X19051158Y-11434293D02*
X19051158Y-11472388D01*
X19051158Y-11472388D02*
X19060682Y-11491436D01*
X19060682Y-11491436D02*
X19070206Y-11500960D01*
X19070206Y-11500960D02*
X19089253Y-11510484D01*
X19089253Y-11510484D02*
X19127349Y-11510484D01*
X19127349Y-11510484D02*
X19146396Y-11500960D01*
X19146396Y-11500960D02*
X19155920Y-11491436D01*
X19155920Y-11491436D02*
X19165444Y-11472388D01*
X19165444Y-11472388D02*
X19165444Y-11434293D01*
X19165444Y-11434293D02*
X19155920Y-11415246D01*
X19155920Y-11415246D02*
X19146396Y-11405722D01*
X19146396Y-11405722D02*
X19127349Y-11396198D01*
X19241634Y-11310484D02*
X19241634Y-11348579D01*
X19317825Y-11310484D02*
X19317825Y-11348579D01*
X19613063Y-11586674D02*
X19603539Y-11577150D01*
X19603539Y-11577150D02*
X19584491Y-11548579D01*
X19584491Y-11548579D02*
X19574968Y-11529531D01*
X19574968Y-11529531D02*
X19565444Y-11500960D01*
X19565444Y-11500960D02*
X19555920Y-11453341D01*
X19555920Y-11453341D02*
X19555920Y-11415246D01*
X19555920Y-11415246D02*
X19565444Y-11367627D01*
X19565444Y-11367627D02*
X19574968Y-11339055D01*
X19574968Y-11339055D02*
X19584491Y-11320008D01*
X19584491Y-11320008D02*
X19603539Y-11291436D01*
X19603539Y-11291436D02*
X19613063Y-11281912D01*
X19679730Y-11329531D02*
X19689253Y-11320008D01*
X19689253Y-11320008D02*
X19708301Y-11310484D01*
X19708301Y-11310484D02*
X19755920Y-11310484D01*
X19755920Y-11310484D02*
X19774968Y-11320008D01*
X19774968Y-11320008D02*
X19784491Y-11329531D01*
X19784491Y-11329531D02*
X19794015Y-11348579D01*
X19794015Y-11348579D02*
X19794015Y-11367627D01*
X19794015Y-11367627D02*
X19784491Y-11396198D01*
X19784491Y-11396198D02*
X19670206Y-11510484D01*
X19670206Y-11510484D02*
X19794015Y-11510484D01*
X19917825Y-11310484D02*
X19936872Y-11310484D01*
X19936872Y-11310484D02*
X19955920Y-11320008D01*
X19955920Y-11320008D02*
X19965444Y-11329531D01*
X19965444Y-11329531D02*
X19974968Y-11348579D01*
X19974968Y-11348579D02*
X19984491Y-11386674D01*
X19984491Y-11386674D02*
X19984491Y-11434293D01*
X19984491Y-11434293D02*
X19974968Y-11472388D01*
X19974968Y-11472388D02*
X19965444Y-11491436D01*
X19965444Y-11491436D02*
X19955920Y-11500960D01*
X19955920Y-11500960D02*
X19936872Y-11510484D01*
X19936872Y-11510484D02*
X19917825Y-11510484D01*
X19917825Y-11510484D02*
X19898777Y-11500960D01*
X19898777Y-11500960D02*
X19889253Y-11491436D01*
X19889253Y-11491436D02*
X19879730Y-11472388D01*
X19879730Y-11472388D02*
X19870206Y-11434293D01*
X19870206Y-11434293D02*
X19870206Y-11386674D01*
X19870206Y-11386674D02*
X19879730Y-11348579D01*
X19879730Y-11348579D02*
X19889253Y-11329531D01*
X19889253Y-11329531D02*
X19898777Y-11320008D01*
X19898777Y-11320008D02*
X19917825Y-11310484D01*
X20222587Y-11510484D02*
X20222587Y-11310484D01*
X20308301Y-11510484D02*
X20308301Y-11405722D01*
X20308301Y-11405722D02*
X20298777Y-11386674D01*
X20298777Y-11386674D02*
X20279730Y-11377150D01*
X20279730Y-11377150D02*
X20251158Y-11377150D01*
X20251158Y-11377150D02*
X20232111Y-11386674D01*
X20232111Y-11386674D02*
X20222587Y-11396198D01*
X20432111Y-11510484D02*
X20413063Y-11500960D01*
X20413063Y-11500960D02*
X20403539Y-11491436D01*
X20403539Y-11491436D02*
X20394015Y-11472388D01*
X20394015Y-11472388D02*
X20394015Y-11415246D01*
X20394015Y-11415246D02*
X20403539Y-11396198D01*
X20403539Y-11396198D02*
X20413063Y-11386674D01*
X20413063Y-11386674D02*
X20432111Y-11377150D01*
X20432111Y-11377150D02*
X20460682Y-11377150D01*
X20460682Y-11377150D02*
X20479730Y-11386674D01*
X20479730Y-11386674D02*
X20489253Y-11396198D01*
X20489253Y-11396198D02*
X20498777Y-11415246D01*
X20498777Y-11415246D02*
X20498777Y-11472388D01*
X20498777Y-11472388D02*
X20489253Y-11491436D01*
X20489253Y-11491436D02*
X20479730Y-11500960D01*
X20479730Y-11500960D02*
X20460682Y-11510484D01*
X20460682Y-11510484D02*
X20432111Y-11510484D01*
X20613063Y-11510484D02*
X20594015Y-11500960D01*
X20594015Y-11500960D02*
X20584492Y-11481912D01*
X20584492Y-11481912D02*
X20584492Y-11310484D01*
X20765444Y-11500960D02*
X20746396Y-11510484D01*
X20746396Y-11510484D02*
X20708301Y-11510484D01*
X20708301Y-11510484D02*
X20689253Y-11500960D01*
X20689253Y-11500960D02*
X20679730Y-11481912D01*
X20679730Y-11481912D02*
X20679730Y-11405722D01*
X20679730Y-11405722D02*
X20689253Y-11386674D01*
X20689253Y-11386674D02*
X20708301Y-11377150D01*
X20708301Y-11377150D02*
X20746396Y-11377150D01*
X20746396Y-11377150D02*
X20765444Y-11386674D01*
X20765444Y-11386674D02*
X20774968Y-11405722D01*
X20774968Y-11405722D02*
X20774968Y-11424769D01*
X20774968Y-11424769D02*
X20679730Y-11443817D01*
X20851158Y-11500960D02*
X20870206Y-11510484D01*
X20870206Y-11510484D02*
X20908301Y-11510484D01*
X20908301Y-11510484D02*
X20927349Y-11500960D01*
X20927349Y-11500960D02*
X20936873Y-11481912D01*
X20936873Y-11481912D02*
X20936873Y-11472388D01*
X20936873Y-11472388D02*
X20927349Y-11453341D01*
X20927349Y-11453341D02*
X20908301Y-11443817D01*
X20908301Y-11443817D02*
X20879730Y-11443817D01*
X20879730Y-11443817D02*
X20860682Y-11434293D01*
X20860682Y-11434293D02*
X20851158Y-11415246D01*
X20851158Y-11415246D02*
X20851158Y-11405722D01*
X20851158Y-11405722D02*
X20860682Y-11386674D01*
X20860682Y-11386674D02*
X20879730Y-11377150D01*
X20879730Y-11377150D02*
X20908301Y-11377150D01*
X20908301Y-11377150D02*
X20927349Y-11386674D01*
X21003539Y-11586674D02*
X21013063Y-11577150D01*
X21013063Y-11577150D02*
X21032111Y-11548579D01*
X21032111Y-11548579D02*
X21041634Y-11529531D01*
X21041634Y-11529531D02*
X21051158Y-11500960D01*
X21051158Y-11500960D02*
X21060682Y-11453341D01*
X21060682Y-11453341D02*
X21060682Y-11415246D01*
X21060682Y-11415246D02*
X21051158Y-11367627D01*
X21051158Y-11367627D02*
X21041634Y-11339055D01*
X21041634Y-11339055D02*
X21032111Y-11320008D01*
X21032111Y-11320008D02*
X21013063Y-11291436D01*
X21013063Y-11291436D02*
X21003539Y-11281912D01*
D10*
X16038000Y-11683000D02*
G75*
G02*
X15938000Y-11683000I-50000J0D01*
G01*
X15938000Y-11683000D02*
G75*
G02*
X16038000Y-11683000I50000J0D01*
G01*
D11*
X16403539Y-11774484D02*
X16289253Y-11774484D01*
X16346396Y-11774484D02*
X16346396Y-11574484D01*
X16346396Y-11574484D02*
X16327348Y-11603055D01*
X16327348Y-11603055D02*
X16308301Y-11622103D01*
X16308301Y-11622103D02*
X16289253Y-11631627D01*
X16489253Y-11755436D02*
X16498777Y-11764960D01*
X16498777Y-11764960D02*
X16489253Y-11774484D01*
X16489253Y-11774484D02*
X16479729Y-11764960D01*
X16479729Y-11764960D02*
X16489253Y-11755436D01*
X16489253Y-11755436D02*
X16489253Y-11774484D01*
X16622586Y-11574484D02*
X16641634Y-11574484D01*
X16641634Y-11574484D02*
X16660682Y-11584008D01*
X16660682Y-11584008D02*
X16670205Y-11593531D01*
X16670205Y-11593531D02*
X16679729Y-11612579D01*
X16679729Y-11612579D02*
X16689253Y-11650674D01*
X16689253Y-11650674D02*
X16689253Y-11698293D01*
X16689253Y-11698293D02*
X16679729Y-11736388D01*
X16679729Y-11736388D02*
X16670205Y-11755436D01*
X16670205Y-11755436D02*
X16660682Y-11764960D01*
X16660682Y-11764960D02*
X16641634Y-11774484D01*
X16641634Y-11774484D02*
X16622586Y-11774484D01*
X16622586Y-11774484D02*
X16603539Y-11764960D01*
X16603539Y-11764960D02*
X16594015Y-11755436D01*
X16594015Y-11755436D02*
X16584491Y-11736388D01*
X16584491Y-11736388D02*
X16574967Y-11698293D01*
X16574967Y-11698293D02*
X16574967Y-11650674D01*
X16574967Y-11650674D02*
X16584491Y-11612579D01*
X16584491Y-11612579D02*
X16594015Y-11593531D01*
X16594015Y-11593531D02*
X16603539Y-11584008D01*
X16603539Y-11584008D02*
X16622586Y-11574484D01*
X16813063Y-11574484D02*
X16832110Y-11574484D01*
X16832110Y-11574484D02*
X16851158Y-11584008D01*
X16851158Y-11584008D02*
X16860682Y-11593531D01*
X16860682Y-11593531D02*
X16870205Y-11612579D01*
X16870205Y-11612579D02*
X16879729Y-11650674D01*
X16879729Y-11650674D02*
X16879729Y-11698293D01*
X16879729Y-11698293D02*
X16870205Y-11736388D01*
X16870205Y-11736388D02*
X16860682Y-11755436D01*
X16860682Y-11755436D02*
X16851158Y-11764960D01*
X16851158Y-11764960D02*
X16832110Y-11774484D01*
X16832110Y-11774484D02*
X16813063Y-11774484D01*
X16813063Y-11774484D02*
X16794015Y-11764960D01*
X16794015Y-11764960D02*
X16784491Y-11755436D01*
X16784491Y-11755436D02*
X16774967Y-11736388D01*
X16774967Y-11736388D02*
X16765443Y-11698293D01*
X16765443Y-11698293D02*
X16765443Y-11650674D01*
X16765443Y-11650674D02*
X16774967Y-11612579D01*
X16774967Y-11612579D02*
X16784491Y-11593531D01*
X16784491Y-11593531D02*
X16794015Y-11584008D01*
X16794015Y-11584008D02*
X16813063Y-11574484D01*
X17003539Y-11574484D02*
X17022586Y-11574484D01*
X17022586Y-11574484D02*
X17041634Y-11584008D01*
X17041634Y-11584008D02*
X17051158Y-11593531D01*
X17051158Y-11593531D02*
X17060682Y-11612579D01*
X17060682Y-11612579D02*
X17070205Y-11650674D01*
X17070205Y-11650674D02*
X17070205Y-11698293D01*
X17070205Y-11698293D02*
X17060682Y-11736388D01*
X17060682Y-11736388D02*
X17051158Y-11755436D01*
X17051158Y-11755436D02*
X17041634Y-11764960D01*
X17041634Y-11764960D02*
X17022586Y-11774484D01*
X17022586Y-11774484D02*
X17003539Y-11774484D01*
X17003539Y-11774484D02*
X16984491Y-11764960D01*
X16984491Y-11764960D02*
X16974967Y-11755436D01*
X16974967Y-11755436D02*
X16965444Y-11736388D01*
X16965444Y-11736388D02*
X16955920Y-11698293D01*
X16955920Y-11698293D02*
X16955920Y-11650674D01*
X16955920Y-11650674D02*
X16965444Y-11612579D01*
X16965444Y-11612579D02*
X16974967Y-11593531D01*
X16974967Y-11593531D02*
X16984491Y-11584008D01*
X16984491Y-11584008D02*
X17003539Y-11574484D01*
X17155920Y-11774484D02*
X17155920Y-11641150D01*
X17155920Y-11660198D02*
X17165444Y-11650674D01*
X17165444Y-11650674D02*
X17184491Y-11641150D01*
X17184491Y-11641150D02*
X17213063Y-11641150D01*
X17213063Y-11641150D02*
X17232110Y-11650674D01*
X17232110Y-11650674D02*
X17241634Y-11669722D01*
X17241634Y-11669722D02*
X17241634Y-11774484D01*
X17241634Y-11669722D02*
X17251158Y-11650674D01*
X17251158Y-11650674D02*
X17270205Y-11641150D01*
X17270205Y-11641150D02*
X17298777Y-11641150D01*
X17298777Y-11641150D02*
X17317825Y-11650674D01*
X17317825Y-11650674D02*
X17327348Y-11669722D01*
X17327348Y-11669722D02*
X17327348Y-11774484D01*
X17422586Y-11774484D02*
X17422586Y-11641150D01*
X17422586Y-11660198D02*
X17432110Y-11650674D01*
X17432110Y-11650674D02*
X17451158Y-11641150D01*
X17451158Y-11641150D02*
X17479729Y-11641150D01*
X17479729Y-11641150D02*
X17498777Y-11650674D01*
X17498777Y-11650674D02*
X17508301Y-11669722D01*
X17508301Y-11669722D02*
X17508301Y-11774484D01*
X17508301Y-11669722D02*
X17517825Y-11650674D01*
X17517825Y-11650674D02*
X17536872Y-11641150D01*
X17536872Y-11641150D02*
X17565444Y-11641150D01*
X17565444Y-11641150D02*
X17584491Y-11650674D01*
X17584491Y-11650674D02*
X17594015Y-11669722D01*
X17594015Y-11669722D02*
X17594015Y-11774484D01*
X17984491Y-11564960D02*
X17813063Y-11822103D01*
X18241634Y-11574484D02*
X18260682Y-11574484D01*
X18260682Y-11574484D02*
X18279729Y-11584008D01*
X18279729Y-11584008D02*
X18289253Y-11593531D01*
X18289253Y-11593531D02*
X18298777Y-11612579D01*
X18298777Y-11612579D02*
X18308301Y-11650674D01*
X18308301Y-11650674D02*
X18308301Y-11698293D01*
X18308301Y-11698293D02*
X18298777Y-11736388D01*
X18298777Y-11736388D02*
X18289253Y-11755436D01*
X18289253Y-11755436D02*
X18279729Y-11764960D01*
X18279729Y-11764960D02*
X18260682Y-11774484D01*
X18260682Y-11774484D02*
X18241634Y-11774484D01*
X18241634Y-11774484D02*
X18222587Y-11764960D01*
X18222587Y-11764960D02*
X18213063Y-11755436D01*
X18213063Y-11755436D02*
X18203539Y-11736388D01*
X18203539Y-11736388D02*
X18194015Y-11698293D01*
X18194015Y-11698293D02*
X18194015Y-11650674D01*
X18194015Y-11650674D02*
X18203539Y-11612579D01*
X18203539Y-11612579D02*
X18213063Y-11593531D01*
X18213063Y-11593531D02*
X18222587Y-11584008D01*
X18222587Y-11584008D02*
X18241634Y-11574484D01*
X18394015Y-11755436D02*
X18403539Y-11764960D01*
X18403539Y-11764960D02*
X18394015Y-11774484D01*
X18394015Y-11774484D02*
X18384491Y-11764960D01*
X18384491Y-11764960D02*
X18394015Y-11755436D01*
X18394015Y-11755436D02*
X18394015Y-11774484D01*
X18527348Y-11574484D02*
X18546396Y-11574484D01*
X18546396Y-11574484D02*
X18565444Y-11584008D01*
X18565444Y-11584008D02*
X18574968Y-11593531D01*
X18574968Y-11593531D02*
X18584491Y-11612579D01*
X18584491Y-11612579D02*
X18594015Y-11650674D01*
X18594015Y-11650674D02*
X18594015Y-11698293D01*
X18594015Y-11698293D02*
X18584491Y-11736388D01*
X18584491Y-11736388D02*
X18574968Y-11755436D01*
X18574968Y-11755436D02*
X18565444Y-11764960D01*
X18565444Y-11764960D02*
X18546396Y-11774484D01*
X18546396Y-11774484D02*
X18527348Y-11774484D01*
X18527348Y-11774484D02*
X18508301Y-11764960D01*
X18508301Y-11764960D02*
X18498777Y-11755436D01*
X18498777Y-11755436D02*
X18489253Y-11736388D01*
X18489253Y-11736388D02*
X18479729Y-11698293D01*
X18479729Y-11698293D02*
X18479729Y-11650674D01*
X18479729Y-11650674D02*
X18489253Y-11612579D01*
X18489253Y-11612579D02*
X18498777Y-11593531D01*
X18498777Y-11593531D02*
X18508301Y-11584008D01*
X18508301Y-11584008D02*
X18527348Y-11574484D01*
X18660682Y-11574484D02*
X18784491Y-11574484D01*
X18784491Y-11574484D02*
X18717825Y-11650674D01*
X18717825Y-11650674D02*
X18746396Y-11650674D01*
X18746396Y-11650674D02*
X18765444Y-11660198D01*
X18765444Y-11660198D02*
X18774968Y-11669722D01*
X18774968Y-11669722D02*
X18784491Y-11688769D01*
X18784491Y-11688769D02*
X18784491Y-11736388D01*
X18784491Y-11736388D02*
X18774968Y-11755436D01*
X18774968Y-11755436D02*
X18765444Y-11764960D01*
X18765444Y-11764960D02*
X18746396Y-11774484D01*
X18746396Y-11774484D02*
X18689253Y-11774484D01*
X18689253Y-11774484D02*
X18670206Y-11764960D01*
X18670206Y-11764960D02*
X18660682Y-11755436D01*
X18879729Y-11774484D02*
X18917825Y-11774484D01*
X18917825Y-11774484D02*
X18936872Y-11764960D01*
X18936872Y-11764960D02*
X18946396Y-11755436D01*
X18946396Y-11755436D02*
X18965444Y-11726865D01*
X18965444Y-11726865D02*
X18974968Y-11688769D01*
X18974968Y-11688769D02*
X18974968Y-11612579D01*
X18974968Y-11612579D02*
X18965444Y-11593531D01*
X18965444Y-11593531D02*
X18955920Y-11584008D01*
X18955920Y-11584008D02*
X18936872Y-11574484D01*
X18936872Y-11574484D02*
X18898777Y-11574484D01*
X18898777Y-11574484D02*
X18879729Y-11584008D01*
X18879729Y-11584008D02*
X18870206Y-11593531D01*
X18870206Y-11593531D02*
X18860682Y-11612579D01*
X18860682Y-11612579D02*
X18860682Y-11660198D01*
X18860682Y-11660198D02*
X18870206Y-11679246D01*
X18870206Y-11679246D02*
X18879729Y-11688769D01*
X18879729Y-11688769D02*
X18898777Y-11698293D01*
X18898777Y-11698293D02*
X18936872Y-11698293D01*
X18936872Y-11698293D02*
X18955920Y-11688769D01*
X18955920Y-11688769D02*
X18965444Y-11679246D01*
X18965444Y-11679246D02*
X18974968Y-11660198D01*
X19146396Y-11641150D02*
X19146396Y-11774484D01*
X19098777Y-11564960D02*
X19051158Y-11707817D01*
X19051158Y-11707817D02*
X19174968Y-11707817D01*
X19241634Y-11574484D02*
X19241634Y-11612579D01*
X19317825Y-11574484D02*
X19317825Y-11612579D01*
X19613063Y-11850674D02*
X19603539Y-11841150D01*
X19603539Y-11841150D02*
X19584491Y-11812579D01*
X19584491Y-11812579D02*
X19574968Y-11793531D01*
X19574968Y-11793531D02*
X19565444Y-11764960D01*
X19565444Y-11764960D02*
X19555920Y-11717341D01*
X19555920Y-11717341D02*
X19555920Y-11679246D01*
X19555920Y-11679246D02*
X19565444Y-11631627D01*
X19565444Y-11631627D02*
X19574968Y-11603055D01*
X19574968Y-11603055D02*
X19584491Y-11584008D01*
X19584491Y-11584008D02*
X19603539Y-11555436D01*
X19603539Y-11555436D02*
X19613063Y-11545912D01*
X19794015Y-11774484D02*
X19679730Y-11774484D01*
X19736872Y-11774484D02*
X19736872Y-11574484D01*
X19736872Y-11574484D02*
X19717825Y-11603055D01*
X19717825Y-11603055D02*
X19698777Y-11622103D01*
X19698777Y-11622103D02*
X19679730Y-11631627D01*
X19870206Y-11593531D02*
X19879730Y-11584008D01*
X19879730Y-11584008D02*
X19898777Y-11574484D01*
X19898777Y-11574484D02*
X19946396Y-11574484D01*
X19946396Y-11574484D02*
X19965444Y-11584008D01*
X19965444Y-11584008D02*
X19974968Y-11593531D01*
X19974968Y-11593531D02*
X19984491Y-11612579D01*
X19984491Y-11612579D02*
X19984491Y-11631627D01*
X19984491Y-11631627D02*
X19974968Y-11660198D01*
X19974968Y-11660198D02*
X19860682Y-11774484D01*
X19860682Y-11774484D02*
X19984491Y-11774484D01*
X20222587Y-11774484D02*
X20222587Y-11574484D01*
X20308301Y-11774484D02*
X20308301Y-11669722D01*
X20308301Y-11669722D02*
X20298777Y-11650674D01*
X20298777Y-11650674D02*
X20279730Y-11641150D01*
X20279730Y-11641150D02*
X20251158Y-11641150D01*
X20251158Y-11641150D02*
X20232111Y-11650674D01*
X20232111Y-11650674D02*
X20222587Y-11660198D01*
X20432111Y-11774484D02*
X20413063Y-11764960D01*
X20413063Y-11764960D02*
X20403539Y-11755436D01*
X20403539Y-11755436D02*
X20394015Y-11736388D01*
X20394015Y-11736388D02*
X20394015Y-11679246D01*
X20394015Y-11679246D02*
X20403539Y-11660198D01*
X20403539Y-11660198D02*
X20413063Y-11650674D01*
X20413063Y-11650674D02*
X20432111Y-11641150D01*
X20432111Y-11641150D02*
X20460682Y-11641150D01*
X20460682Y-11641150D02*
X20479730Y-11650674D01*
X20479730Y-11650674D02*
X20489253Y-11660198D01*
X20489253Y-11660198D02*
X20498777Y-11679246D01*
X20498777Y-11679246D02*
X20498777Y-11736388D01*
X20498777Y-11736388D02*
X20489253Y-11755436D01*
X20489253Y-11755436D02*
X20479730Y-11764960D01*
X20479730Y-11764960D02*
X20460682Y-11774484D01*
X20460682Y-11774484D02*
X20432111Y-11774484D01*
X20613063Y-11774484D02*
X20594015Y-11764960D01*
X20594015Y-11764960D02*
X20584492Y-11745912D01*
X20584492Y-11745912D02*
X20584492Y-11574484D01*
X20765444Y-11764960D02*
X20746396Y-11774484D01*
X20746396Y-11774484D02*
X20708301Y-11774484D01*
X20708301Y-11774484D02*
X20689253Y-11764960D01*
X20689253Y-11764960D02*
X20679730Y-11745912D01*
X20679730Y-11745912D02*
X20679730Y-11669722D01*
X20679730Y-11669722D02*
X20689253Y-11650674D01*
X20689253Y-11650674D02*
X20708301Y-11641150D01*
X20708301Y-11641150D02*
X20746396Y-11641150D01*
X20746396Y-11641150D02*
X20765444Y-11650674D01*
X20765444Y-11650674D02*
X20774968Y-11669722D01*
X20774968Y-11669722D02*
X20774968Y-11688769D01*
X20774968Y-11688769D02*
X20679730Y-11707817D01*
X20851158Y-11764960D02*
X20870206Y-11774484D01*
X20870206Y-11774484D02*
X20908301Y-11774484D01*
X20908301Y-11774484D02*
X20927349Y-11764960D01*
X20927349Y-11764960D02*
X20936873Y-11745912D01*
X20936873Y-11745912D02*
X20936873Y-11736388D01*
X20936873Y-11736388D02*
X20927349Y-11717341D01*
X20927349Y-11717341D02*
X20908301Y-11707817D01*
X20908301Y-11707817D02*
X20879730Y-11707817D01*
X20879730Y-11707817D02*
X20860682Y-11698293D01*
X20860682Y-11698293D02*
X20851158Y-11679246D01*
X20851158Y-11679246D02*
X20851158Y-11669722D01*
X20851158Y-11669722D02*
X20860682Y-11650674D01*
X20860682Y-11650674D02*
X20879730Y-11641150D01*
X20879730Y-11641150D02*
X20908301Y-11641150D01*
X20908301Y-11641150D02*
X20927349Y-11650674D01*
X21003539Y-11850674D02*
X21013063Y-11841150D01*
X21013063Y-11841150D02*
X21032111Y-11812579D01*
X21032111Y-11812579D02*
X21041634Y-11793531D01*
X21041634Y-11793531D02*
X21051158Y-11764960D01*
X21051158Y-11764960D02*
X21060682Y-11717341D01*
X21060682Y-11717341D02*
X21060682Y-11679246D01*
X21060682Y-11679246D02*
X21051158Y-11631627D01*
X21051158Y-11631627D02*
X21041634Y-11603055D01*
X21041634Y-11603055D02*
X21032111Y-11584008D01*
X21032111Y-11584008D02*
X21013063Y-11555436D01*
X21013063Y-11555436D02*
X21003539Y-11545912D01*
M02*
