%TF.GenerationSoftware,KiCad,Pcbnew,8.0.9-8.0.9-0~ubuntu24.04.1*%
%TF.CreationDate,2025-04-27T19:31:52+05:30*%
%TF.ProjectId,ch552ICSPUPDI,63683535-3249-4435-9350-555044492e6b,rev?*%
%TF.SameCoordinates,Original*%
%TF.FileFunction,Legend,Top*%
%TF.FilePolarity,Positive*%
%FSLAX46Y46*%
G04 Gerber Fmt 4.6, Leading zero omitted, Abs format (unit mm)*
G04 Created by KiCad (PCBNEW 8.0.9-8.0.9-0~ubuntu24.04.1) date 2025-04-27 19:31:52*
%MOMM*%
%LPD*%
G01*
G04 APERTURE LIST*
%ADD10C,0.150000*%
%ADD11C,0.120000*%
G04 APERTURE END LIST*
D10*
X173083333Y-94659580D02*
X173035714Y-94707200D01*
X173035714Y-94707200D02*
X172892857Y-94754819D01*
X172892857Y-94754819D02*
X172797619Y-94754819D01*
X172797619Y-94754819D02*
X172654762Y-94707200D01*
X172654762Y-94707200D02*
X172559524Y-94611961D01*
X172559524Y-94611961D02*
X172511905Y-94516723D01*
X172511905Y-94516723D02*
X172464286Y-94326247D01*
X172464286Y-94326247D02*
X172464286Y-94183390D01*
X172464286Y-94183390D02*
X172511905Y-93992914D01*
X172511905Y-93992914D02*
X172559524Y-93897676D01*
X172559524Y-93897676D02*
X172654762Y-93802438D01*
X172654762Y-93802438D02*
X172797619Y-93754819D01*
X172797619Y-93754819D02*
X172892857Y-93754819D01*
X172892857Y-93754819D02*
X173035714Y-93802438D01*
X173035714Y-93802438D02*
X173083333Y-93850057D01*
X173416667Y-93754819D02*
X174035714Y-93754819D01*
X174035714Y-93754819D02*
X173702381Y-94135771D01*
X173702381Y-94135771D02*
X173845238Y-94135771D01*
X173845238Y-94135771D02*
X173940476Y-94183390D01*
X173940476Y-94183390D02*
X173988095Y-94231009D01*
X173988095Y-94231009D02*
X174035714Y-94326247D01*
X174035714Y-94326247D02*
X174035714Y-94564342D01*
X174035714Y-94564342D02*
X173988095Y-94659580D01*
X173988095Y-94659580D02*
X173940476Y-94707200D01*
X173940476Y-94707200D02*
X173845238Y-94754819D01*
X173845238Y-94754819D02*
X173559524Y-94754819D01*
X173559524Y-94754819D02*
X173464286Y-94707200D01*
X173464286Y-94707200D02*
X173416667Y-94659580D01*
X170503333Y-91449580D02*
X170455714Y-91497200D01*
X170455714Y-91497200D02*
X170312857Y-91544819D01*
X170312857Y-91544819D02*
X170217619Y-91544819D01*
X170217619Y-91544819D02*
X170074762Y-91497200D01*
X170074762Y-91497200D02*
X169979524Y-91401961D01*
X169979524Y-91401961D02*
X169931905Y-91306723D01*
X169931905Y-91306723D02*
X169884286Y-91116247D01*
X169884286Y-91116247D02*
X169884286Y-90973390D01*
X169884286Y-90973390D02*
X169931905Y-90782914D01*
X169931905Y-90782914D02*
X169979524Y-90687676D01*
X169979524Y-90687676D02*
X170074762Y-90592438D01*
X170074762Y-90592438D02*
X170217619Y-90544819D01*
X170217619Y-90544819D02*
X170312857Y-90544819D01*
X170312857Y-90544819D02*
X170455714Y-90592438D01*
X170455714Y-90592438D02*
X170503333Y-90640057D01*
X171408095Y-90544819D02*
X170931905Y-90544819D01*
X170931905Y-90544819D02*
X170884286Y-91021009D01*
X170884286Y-91021009D02*
X170931905Y-90973390D01*
X170931905Y-90973390D02*
X171027143Y-90925771D01*
X171027143Y-90925771D02*
X171265238Y-90925771D01*
X171265238Y-90925771D02*
X171360476Y-90973390D01*
X171360476Y-90973390D02*
X171408095Y-91021009D01*
X171408095Y-91021009D02*
X171455714Y-91116247D01*
X171455714Y-91116247D02*
X171455714Y-91354342D01*
X171455714Y-91354342D02*
X171408095Y-91449580D01*
X171408095Y-91449580D02*
X171360476Y-91497200D01*
X171360476Y-91497200D02*
X171265238Y-91544819D01*
X171265238Y-91544819D02*
X171027143Y-91544819D01*
X171027143Y-91544819D02*
X170931905Y-91497200D01*
X170931905Y-91497200D02*
X170884286Y-91449580D01*
X165696666Y-104524819D02*
X165696666Y-105239104D01*
X165696666Y-105239104D02*
X165649047Y-105381961D01*
X165649047Y-105381961D02*
X165553809Y-105477200D01*
X165553809Y-105477200D02*
X165410952Y-105524819D01*
X165410952Y-105524819D02*
X165315714Y-105524819D01*
X166601428Y-104858152D02*
X166601428Y-105524819D01*
X166363333Y-104477200D02*
X166125238Y-105191485D01*
X166125238Y-105191485D02*
X166744285Y-105191485D01*
X166634819Y-100551666D02*
X166158628Y-100884999D01*
X166634819Y-101123094D02*
X165634819Y-101123094D01*
X165634819Y-101123094D02*
X165634819Y-100742142D01*
X165634819Y-100742142D02*
X165682438Y-100646904D01*
X165682438Y-100646904D02*
X165730057Y-100599285D01*
X165730057Y-100599285D02*
X165825295Y-100551666D01*
X165825295Y-100551666D02*
X165968152Y-100551666D01*
X165968152Y-100551666D02*
X166063390Y-100599285D01*
X166063390Y-100599285D02*
X166111009Y-100646904D01*
X166111009Y-100646904D02*
X166158628Y-100742142D01*
X166158628Y-100742142D02*
X166158628Y-101123094D01*
X165968152Y-99694523D02*
X166634819Y-99694523D01*
X165587200Y-99932618D02*
X166301485Y-100170713D01*
X166301485Y-100170713D02*
X166301485Y-99551666D01*
X175298095Y-87234819D02*
X175298095Y-88044342D01*
X175298095Y-88044342D02*
X175345714Y-88139580D01*
X175345714Y-88139580D02*
X175393333Y-88187200D01*
X175393333Y-88187200D02*
X175488571Y-88234819D01*
X175488571Y-88234819D02*
X175679047Y-88234819D01*
X175679047Y-88234819D02*
X175774285Y-88187200D01*
X175774285Y-88187200D02*
X175821904Y-88139580D01*
X175821904Y-88139580D02*
X175869523Y-88044342D01*
X175869523Y-88044342D02*
X175869523Y-87234819D01*
X176298095Y-87330057D02*
X176345714Y-87282438D01*
X176345714Y-87282438D02*
X176440952Y-87234819D01*
X176440952Y-87234819D02*
X176679047Y-87234819D01*
X176679047Y-87234819D02*
X176774285Y-87282438D01*
X176774285Y-87282438D02*
X176821904Y-87330057D01*
X176821904Y-87330057D02*
X176869523Y-87425295D01*
X176869523Y-87425295D02*
X176869523Y-87520533D01*
X176869523Y-87520533D02*
X176821904Y-87663390D01*
X176821904Y-87663390D02*
X176250476Y-88234819D01*
X176250476Y-88234819D02*
X176869523Y-88234819D01*
X166174819Y-82136666D02*
X165698628Y-82469999D01*
X166174819Y-82708094D02*
X165174819Y-82708094D01*
X165174819Y-82708094D02*
X165174819Y-82327142D01*
X165174819Y-82327142D02*
X165222438Y-82231904D01*
X165222438Y-82231904D02*
X165270057Y-82184285D01*
X165270057Y-82184285D02*
X165365295Y-82136666D01*
X165365295Y-82136666D02*
X165508152Y-82136666D01*
X165508152Y-82136666D02*
X165603390Y-82184285D01*
X165603390Y-82184285D02*
X165651009Y-82231904D01*
X165651009Y-82231904D02*
X165698628Y-82327142D01*
X165698628Y-82327142D02*
X165698628Y-82708094D01*
X166174819Y-81184285D02*
X166174819Y-81755713D01*
X166174819Y-81469999D02*
X165174819Y-81469999D01*
X165174819Y-81469999D02*
X165317676Y-81565237D01*
X165317676Y-81565237D02*
X165412914Y-81660475D01*
X165412914Y-81660475D02*
X165460533Y-81755713D01*
X178526666Y-98974819D02*
X178526666Y-99689104D01*
X178526666Y-99689104D02*
X178479047Y-99831961D01*
X178479047Y-99831961D02*
X178383809Y-99927200D01*
X178383809Y-99927200D02*
X178240952Y-99974819D01*
X178240952Y-99974819D02*
X178145714Y-99974819D01*
X178955238Y-99070057D02*
X179002857Y-99022438D01*
X179002857Y-99022438D02*
X179098095Y-98974819D01*
X179098095Y-98974819D02*
X179336190Y-98974819D01*
X179336190Y-98974819D02*
X179431428Y-99022438D01*
X179431428Y-99022438D02*
X179479047Y-99070057D01*
X179479047Y-99070057D02*
X179526666Y-99165295D01*
X179526666Y-99165295D02*
X179526666Y-99260533D01*
X179526666Y-99260533D02*
X179479047Y-99403390D01*
X179479047Y-99403390D02*
X178907619Y-99974819D01*
X178907619Y-99974819D02*
X179526666Y-99974819D01*
X169726666Y-75984819D02*
X169726666Y-76699104D01*
X169726666Y-76699104D02*
X169679047Y-76841961D01*
X169679047Y-76841961D02*
X169583809Y-76937200D01*
X169583809Y-76937200D02*
X169440952Y-76984819D01*
X169440952Y-76984819D02*
X169345714Y-76984819D01*
X170726666Y-76984819D02*
X170155238Y-76984819D01*
X170440952Y-76984819D02*
X170440952Y-75984819D01*
X170440952Y-75984819D02*
X170345714Y-76127676D01*
X170345714Y-76127676D02*
X170250476Y-76222914D01*
X170250476Y-76222914D02*
X170155238Y-76270533D01*
X177813333Y-79819580D02*
X177765714Y-79867200D01*
X177765714Y-79867200D02*
X177622857Y-79914819D01*
X177622857Y-79914819D02*
X177527619Y-79914819D01*
X177527619Y-79914819D02*
X177384762Y-79867200D01*
X177384762Y-79867200D02*
X177289524Y-79771961D01*
X177289524Y-79771961D02*
X177241905Y-79676723D01*
X177241905Y-79676723D02*
X177194286Y-79486247D01*
X177194286Y-79486247D02*
X177194286Y-79343390D01*
X177194286Y-79343390D02*
X177241905Y-79152914D01*
X177241905Y-79152914D02*
X177289524Y-79057676D01*
X177289524Y-79057676D02*
X177384762Y-78962438D01*
X177384762Y-78962438D02*
X177527619Y-78914819D01*
X177527619Y-78914819D02*
X177622857Y-78914819D01*
X177622857Y-78914819D02*
X177765714Y-78962438D01*
X177765714Y-78962438D02*
X177813333Y-79010057D01*
X178670476Y-79248152D02*
X178670476Y-79914819D01*
X178432381Y-78867200D02*
X178194286Y-79581485D01*
X178194286Y-79581485D02*
X178813333Y-79581485D01*
X164768095Y-87114819D02*
X164768095Y-87924342D01*
X164768095Y-87924342D02*
X164815714Y-88019580D01*
X164815714Y-88019580D02*
X164863333Y-88067200D01*
X164863333Y-88067200D02*
X164958571Y-88114819D01*
X164958571Y-88114819D02*
X165149047Y-88114819D01*
X165149047Y-88114819D02*
X165244285Y-88067200D01*
X165244285Y-88067200D02*
X165291904Y-88019580D01*
X165291904Y-88019580D02*
X165339523Y-87924342D01*
X165339523Y-87924342D02*
X165339523Y-87114819D01*
X166339523Y-88114819D02*
X165768095Y-88114819D01*
X166053809Y-88114819D02*
X166053809Y-87114819D01*
X166053809Y-87114819D02*
X165958571Y-87257676D01*
X165958571Y-87257676D02*
X165863333Y-87352914D01*
X165863333Y-87352914D02*
X165768095Y-87400533D01*
X164954819Y-77448094D02*
X163954819Y-77448094D01*
X163954819Y-77448094D02*
X163954819Y-77209999D01*
X163954819Y-77209999D02*
X164002438Y-77067142D01*
X164002438Y-77067142D02*
X164097676Y-76971904D01*
X164097676Y-76971904D02*
X164192914Y-76924285D01*
X164192914Y-76924285D02*
X164383390Y-76876666D01*
X164383390Y-76876666D02*
X164526247Y-76876666D01*
X164526247Y-76876666D02*
X164716723Y-76924285D01*
X164716723Y-76924285D02*
X164811961Y-76971904D01*
X164811961Y-76971904D02*
X164907200Y-77067142D01*
X164907200Y-77067142D02*
X164954819Y-77209999D01*
X164954819Y-77209999D02*
X164954819Y-77448094D01*
X164954819Y-75924285D02*
X164954819Y-76495713D01*
X164954819Y-76209999D02*
X163954819Y-76209999D01*
X163954819Y-76209999D02*
X164097676Y-76305237D01*
X164097676Y-76305237D02*
X164192914Y-76400475D01*
X164192914Y-76400475D02*
X164240533Y-76495713D01*
X173243333Y-99349580D02*
X173195714Y-99397200D01*
X173195714Y-99397200D02*
X173052857Y-99444819D01*
X173052857Y-99444819D02*
X172957619Y-99444819D01*
X172957619Y-99444819D02*
X172814762Y-99397200D01*
X172814762Y-99397200D02*
X172719524Y-99301961D01*
X172719524Y-99301961D02*
X172671905Y-99206723D01*
X172671905Y-99206723D02*
X172624286Y-99016247D01*
X172624286Y-99016247D02*
X172624286Y-98873390D01*
X172624286Y-98873390D02*
X172671905Y-98682914D01*
X172671905Y-98682914D02*
X172719524Y-98587676D01*
X172719524Y-98587676D02*
X172814762Y-98492438D01*
X172814762Y-98492438D02*
X172957619Y-98444819D01*
X172957619Y-98444819D02*
X173052857Y-98444819D01*
X173052857Y-98444819D02*
X173195714Y-98492438D01*
X173195714Y-98492438D02*
X173243333Y-98540057D01*
X173624286Y-98540057D02*
X173671905Y-98492438D01*
X173671905Y-98492438D02*
X173767143Y-98444819D01*
X173767143Y-98444819D02*
X174005238Y-98444819D01*
X174005238Y-98444819D02*
X174100476Y-98492438D01*
X174100476Y-98492438D02*
X174148095Y-98540057D01*
X174148095Y-98540057D02*
X174195714Y-98635295D01*
X174195714Y-98635295D02*
X174195714Y-98730533D01*
X174195714Y-98730533D02*
X174148095Y-98873390D01*
X174148095Y-98873390D02*
X173576667Y-99444819D01*
X173576667Y-99444819D02*
X174195714Y-99444819D01*
X172586667Y-80337200D02*
X172729524Y-80384819D01*
X172729524Y-80384819D02*
X172967619Y-80384819D01*
X172967619Y-80384819D02*
X173062857Y-80337200D01*
X173062857Y-80337200D02*
X173110476Y-80289580D01*
X173110476Y-80289580D02*
X173158095Y-80194342D01*
X173158095Y-80194342D02*
X173158095Y-80099104D01*
X173158095Y-80099104D02*
X173110476Y-80003866D01*
X173110476Y-80003866D02*
X173062857Y-79956247D01*
X173062857Y-79956247D02*
X172967619Y-79908628D01*
X172967619Y-79908628D02*
X172777143Y-79861009D01*
X172777143Y-79861009D02*
X172681905Y-79813390D01*
X172681905Y-79813390D02*
X172634286Y-79765771D01*
X172634286Y-79765771D02*
X172586667Y-79670533D01*
X172586667Y-79670533D02*
X172586667Y-79575295D01*
X172586667Y-79575295D02*
X172634286Y-79480057D01*
X172634286Y-79480057D02*
X172681905Y-79432438D01*
X172681905Y-79432438D02*
X172777143Y-79384819D01*
X172777143Y-79384819D02*
X173015238Y-79384819D01*
X173015238Y-79384819D02*
X173158095Y-79432438D01*
X173491429Y-79384819D02*
X173729524Y-80384819D01*
X173729524Y-80384819D02*
X173920000Y-79670533D01*
X173920000Y-79670533D02*
X174110476Y-80384819D01*
X174110476Y-80384819D02*
X174348572Y-79384819D01*
X175253333Y-80384819D02*
X174681905Y-80384819D01*
X174967619Y-80384819D02*
X174967619Y-79384819D01*
X174967619Y-79384819D02*
X174872381Y-79527676D01*
X174872381Y-79527676D02*
X174777143Y-79622914D01*
X174777143Y-79622914D02*
X174681905Y-79670533D01*
X171873333Y-93279580D02*
X171825714Y-93327200D01*
X171825714Y-93327200D02*
X171682857Y-93374819D01*
X171682857Y-93374819D02*
X171587619Y-93374819D01*
X171587619Y-93374819D02*
X171444762Y-93327200D01*
X171444762Y-93327200D02*
X171349524Y-93231961D01*
X171349524Y-93231961D02*
X171301905Y-93136723D01*
X171301905Y-93136723D02*
X171254286Y-92946247D01*
X171254286Y-92946247D02*
X171254286Y-92803390D01*
X171254286Y-92803390D02*
X171301905Y-92612914D01*
X171301905Y-92612914D02*
X171349524Y-92517676D01*
X171349524Y-92517676D02*
X171444762Y-92422438D01*
X171444762Y-92422438D02*
X171587619Y-92374819D01*
X171587619Y-92374819D02*
X171682857Y-92374819D01*
X171682857Y-92374819D02*
X171825714Y-92422438D01*
X171825714Y-92422438D02*
X171873333Y-92470057D01*
X172825714Y-93374819D02*
X172254286Y-93374819D01*
X172540000Y-93374819D02*
X172540000Y-92374819D01*
X172540000Y-92374819D02*
X172444762Y-92517676D01*
X172444762Y-92517676D02*
X172349524Y-92612914D01*
X172349524Y-92612914D02*
X172254286Y-92660533D01*
X170373333Y-84044819D02*
X170040000Y-83568628D01*
X169801905Y-84044819D02*
X169801905Y-83044819D01*
X169801905Y-83044819D02*
X170182857Y-83044819D01*
X170182857Y-83044819D02*
X170278095Y-83092438D01*
X170278095Y-83092438D02*
X170325714Y-83140057D01*
X170325714Y-83140057D02*
X170373333Y-83235295D01*
X170373333Y-83235295D02*
X170373333Y-83378152D01*
X170373333Y-83378152D02*
X170325714Y-83473390D01*
X170325714Y-83473390D02*
X170278095Y-83521009D01*
X170278095Y-83521009D02*
X170182857Y-83568628D01*
X170182857Y-83568628D02*
X169801905Y-83568628D01*
X170706667Y-83044819D02*
X171325714Y-83044819D01*
X171325714Y-83044819D02*
X170992381Y-83425771D01*
X170992381Y-83425771D02*
X171135238Y-83425771D01*
X171135238Y-83425771D02*
X171230476Y-83473390D01*
X171230476Y-83473390D02*
X171278095Y-83521009D01*
X171278095Y-83521009D02*
X171325714Y-83616247D01*
X171325714Y-83616247D02*
X171325714Y-83854342D01*
X171325714Y-83854342D02*
X171278095Y-83949580D01*
X171278095Y-83949580D02*
X171230476Y-83997200D01*
X171230476Y-83997200D02*
X171135238Y-84044819D01*
X171135238Y-84044819D02*
X170849524Y-84044819D01*
X170849524Y-84044819D02*
X170754286Y-83997200D01*
X170754286Y-83997200D02*
X170706667Y-83949580D01*
X163314819Y-77488094D02*
X162314819Y-77488094D01*
X162314819Y-77488094D02*
X162314819Y-77249999D01*
X162314819Y-77249999D02*
X162362438Y-77107142D01*
X162362438Y-77107142D02*
X162457676Y-77011904D01*
X162457676Y-77011904D02*
X162552914Y-76964285D01*
X162552914Y-76964285D02*
X162743390Y-76916666D01*
X162743390Y-76916666D02*
X162886247Y-76916666D01*
X162886247Y-76916666D02*
X163076723Y-76964285D01*
X163076723Y-76964285D02*
X163171961Y-77011904D01*
X163171961Y-77011904D02*
X163267200Y-77107142D01*
X163267200Y-77107142D02*
X163314819Y-77249999D01*
X163314819Y-77249999D02*
X163314819Y-77488094D01*
X162410057Y-76535713D02*
X162362438Y-76488094D01*
X162362438Y-76488094D02*
X162314819Y-76392856D01*
X162314819Y-76392856D02*
X162314819Y-76154761D01*
X162314819Y-76154761D02*
X162362438Y-76059523D01*
X162362438Y-76059523D02*
X162410057Y-76011904D01*
X162410057Y-76011904D02*
X162505295Y-75964285D01*
X162505295Y-75964285D02*
X162600533Y-75964285D01*
X162600533Y-75964285D02*
X162743390Y-76011904D01*
X162743390Y-76011904D02*
X163314819Y-76583332D01*
X163314819Y-76583332D02*
X163314819Y-75964285D01*
X162194819Y-82246666D02*
X161718628Y-82579999D01*
X162194819Y-82818094D02*
X161194819Y-82818094D01*
X161194819Y-82818094D02*
X161194819Y-82437142D01*
X161194819Y-82437142D02*
X161242438Y-82341904D01*
X161242438Y-82341904D02*
X161290057Y-82294285D01*
X161290057Y-82294285D02*
X161385295Y-82246666D01*
X161385295Y-82246666D02*
X161528152Y-82246666D01*
X161528152Y-82246666D02*
X161623390Y-82294285D01*
X161623390Y-82294285D02*
X161671009Y-82341904D01*
X161671009Y-82341904D02*
X161718628Y-82437142D01*
X161718628Y-82437142D02*
X161718628Y-82818094D01*
X161290057Y-81865713D02*
X161242438Y-81818094D01*
X161242438Y-81818094D02*
X161194819Y-81722856D01*
X161194819Y-81722856D02*
X161194819Y-81484761D01*
X161194819Y-81484761D02*
X161242438Y-81389523D01*
X161242438Y-81389523D02*
X161290057Y-81341904D01*
X161290057Y-81341904D02*
X161385295Y-81294285D01*
X161385295Y-81294285D02*
X161480533Y-81294285D01*
X161480533Y-81294285D02*
X161623390Y-81341904D01*
X161623390Y-81341904D02*
X162194819Y-81913332D01*
X162194819Y-81913332D02*
X162194819Y-81294285D01*
X167894819Y-103003333D02*
X168609104Y-103003333D01*
X168609104Y-103003333D02*
X168751961Y-103050952D01*
X168751961Y-103050952D02*
X168847200Y-103146190D01*
X168847200Y-103146190D02*
X168894819Y-103289047D01*
X168894819Y-103289047D02*
X168894819Y-103384285D01*
X167894819Y-102622380D02*
X167894819Y-102003333D01*
X167894819Y-102003333D02*
X168275771Y-102336666D01*
X168275771Y-102336666D02*
X168275771Y-102193809D01*
X168275771Y-102193809D02*
X168323390Y-102098571D01*
X168323390Y-102098571D02*
X168371009Y-102050952D01*
X168371009Y-102050952D02*
X168466247Y-102003333D01*
X168466247Y-102003333D02*
X168704342Y-102003333D01*
X168704342Y-102003333D02*
X168799580Y-102050952D01*
X168799580Y-102050952D02*
X168847200Y-102098571D01*
X168847200Y-102098571D02*
X168894819Y-102193809D01*
X168894819Y-102193809D02*
X168894819Y-102479523D01*
X168894819Y-102479523D02*
X168847200Y-102574761D01*
X168847200Y-102574761D02*
X168799580Y-102622380D01*
D11*
%TO.C,C3*%
X173000000Y-96451232D02*
X173000000Y-96743766D01*
X174020000Y-96451232D02*
X174020000Y-96743766D01*
%TO.C,C5*%
X174823752Y-90070000D02*
X173401248Y-90070000D01*
X174823752Y-91890000D02*
X173401248Y-91890000D01*
%TO.C,J4*%
X161980000Y-102669999D02*
X161980000Y-97530001D01*
X164640000Y-97530001D02*
X161980000Y-97530001D01*
X164640000Y-102669999D02*
X161980000Y-102669999D01*
X164640000Y-102669999D02*
X164640000Y-97530001D01*
X164640000Y-103940000D02*
X164640000Y-105270000D01*
X164640000Y-105270000D02*
X163310000Y-105270000D01*
%TO.C,R4*%
X165739999Y-98029879D02*
X165739999Y-98365121D01*
X166500001Y-98029879D02*
X166500001Y-98365121D01*
%TO.C,U2*%
X174070000Y-82770000D02*
X174070000Y-84029999D01*
X174070000Y-89590000D02*
X174070000Y-88330001D01*
X177830000Y-82769999D02*
X174070000Y-82770000D01*
X177830000Y-89590001D02*
X174070000Y-89590000D01*
X179350000Y-89820000D02*
X178870000Y-89820000D01*
X179110000Y-89490000D01*
X179350000Y-89820000D01*
G36*
X179350000Y-89820000D02*
G01*
X178870000Y-89820000D01*
X179110000Y-89490000D01*
X179350000Y-89820000D01*
G37*
%TO.C,R1*%
X164109999Y-81974879D02*
X164109999Y-82310121D01*
X164870001Y-81974879D02*
X164870001Y-82310121D01*
%TO.C,J2*%
X177260000Y-95539998D02*
X177260000Y-90400000D01*
X179920000Y-90400000D02*
X177260000Y-90400000D01*
X179920000Y-95539998D02*
X177260000Y-95539998D01*
X179920000Y-95539998D02*
X179920000Y-90400000D01*
X179920000Y-96809999D02*
X179920000Y-98139999D01*
X179920000Y-98139999D02*
X178590000Y-98139999D01*
%TO.C,J1*%
X166510000Y-74170001D02*
X166510000Y-73910001D01*
X166510000Y-78220001D02*
X166510000Y-76450001D01*
X166510000Y-78220001D02*
X166890000Y-78220001D01*
X174130000Y-73910001D02*
X174130000Y-74170001D01*
X174130000Y-76450001D02*
X174130000Y-78220001D01*
X174130000Y-78220001D02*
X173750000Y-78220001D01*
%TO.C,C4*%
X178583752Y-80370000D02*
X177161248Y-80370000D01*
X178583752Y-82190000D02*
X177161248Y-82190000D01*
%TO.C,U1*%
X165510000Y-85215000D02*
X163560000Y-85215000D01*
X165510000Y-85215000D02*
X167460000Y-85215000D01*
X165510000Y-95335000D02*
X163560000Y-95335000D01*
X165510000Y-95335000D02*
X167460000Y-95335000D01*
X162810000Y-85295000D02*
X162570000Y-84965000D01*
X163050000Y-84965000D01*
X162810000Y-85295000D01*
G36*
X162810000Y-85295000D02*
G01*
X162570000Y-84965000D01*
X163050000Y-84965000D01*
X162810000Y-85295000D01*
G37*
%TO.C,D1*%
X163755000Y-77665001D02*
X163755000Y-80125001D01*
X165225000Y-77665001D02*
X163755000Y-77665001D01*
X165225000Y-80125001D02*
X165225000Y-77665001D01*
%TO.C,C2*%
X174580000Y-95931248D02*
X174580000Y-97353752D01*
X176400000Y-95931248D02*
X176400000Y-97353752D01*
%TO.C,SW1*%
X168420000Y-79450000D02*
X171720000Y-79450000D01*
X168420000Y-79750000D02*
X168420000Y-79450000D01*
X168420000Y-81950000D02*
X168420000Y-82250000D01*
X168420000Y-82250000D02*
X171720000Y-82250000D01*
X171720000Y-79450000D02*
X171720000Y-79750000D01*
X171720000Y-82250000D02*
X171720000Y-81950000D01*
%TO.C,C1*%
X174658768Y-92390000D02*
X174366234Y-92390000D01*
X174658768Y-93410000D02*
X174366234Y-93410000D01*
%TO.C,R3*%
X167452936Y-82865000D02*
X167907064Y-82865000D01*
X167452936Y-84335000D02*
X167907064Y-84335000D01*
%TO.C,D2*%
X162105000Y-77695001D02*
X162105000Y-80155001D01*
X163575000Y-77695001D02*
X162105000Y-77695001D01*
X163575000Y-80155001D02*
X163575000Y-77695001D01*
%TO.C,R2*%
X162459999Y-82004879D02*
X162459999Y-82340121D01*
X163220001Y-82004879D02*
X163220001Y-82340121D01*
%TD*%
M02*
