%TF.GenerationSoftware,KiCad,Pcbnew,8.0.9-8.0.9-0~ubuntu24.04.1*%
%TF.CreationDate,2025-04-27T19:31:59+05:30*%
%TF.ProjectId,ch552ICSPUPDI,63683535-3249-4435-9350-555044492e6b,rev?*%
%TF.SameCoordinates,Original*%
%TF.FileFunction,Drillmap*%
%TF.FilePolarity,Positive*%
%FSLAX45Y45*%
G04 Gerber Fmt 4.5, Leading zero omitted, Abs format (unit mm)*
G04 Created by KiCad (PCBNEW 8.0.9-8.0.9-0~ubuntu24.04.1) date 2025-04-27 19:31:59*
%MOMM*%
%LPD*%
G01*
G04 APERTURE LIST*
%ADD10C,0.100000*%
%ADD11C,0.200000*%
G04 APERTURE END LIST*
D10*
X16043000Y-7374000D02*
X18243000Y-7374000D01*
X18243000Y-10774000D01*
X16043000Y-10774000D01*
X16043000Y-7374000D01*
D11*
X16298777Y-11090484D02*
X16298777Y-10890484D01*
X16298777Y-10890484D02*
X16346396Y-10890484D01*
X16346396Y-10890484D02*
X16374967Y-10900008D01*
X16374967Y-10900008D02*
X16394015Y-10919055D01*
X16394015Y-10919055D02*
X16403539Y-10938103D01*
X16403539Y-10938103D02*
X16413062Y-10976198D01*
X16413062Y-10976198D02*
X16413062Y-11004770D01*
X16413062Y-11004770D02*
X16403539Y-11042865D01*
X16403539Y-11042865D02*
X16394015Y-11061912D01*
X16394015Y-11061912D02*
X16374967Y-11080960D01*
X16374967Y-11080960D02*
X16346396Y-11090484D01*
X16346396Y-11090484D02*
X16298777Y-11090484D01*
X16498777Y-11090484D02*
X16498777Y-10957150D01*
X16498777Y-10995246D02*
X16508301Y-10976198D01*
X16508301Y-10976198D02*
X16517824Y-10966674D01*
X16517824Y-10966674D02*
X16536872Y-10957150D01*
X16536872Y-10957150D02*
X16555920Y-10957150D01*
X16622586Y-11090484D02*
X16622586Y-10957150D01*
X16622586Y-10890484D02*
X16613062Y-10900008D01*
X16613062Y-10900008D02*
X16622586Y-10909531D01*
X16622586Y-10909531D02*
X16632110Y-10900008D01*
X16632110Y-10900008D02*
X16622586Y-10890484D01*
X16622586Y-10890484D02*
X16622586Y-10909531D01*
X16746396Y-11090484D02*
X16727348Y-11080960D01*
X16727348Y-11080960D02*
X16717824Y-11061912D01*
X16717824Y-11061912D02*
X16717824Y-10890484D01*
X16851158Y-11090484D02*
X16832110Y-11080960D01*
X16832110Y-11080960D02*
X16822586Y-11061912D01*
X16822586Y-11061912D02*
X16822586Y-10890484D01*
X17079729Y-11090484D02*
X17079729Y-10890484D01*
X17079729Y-10890484D02*
X17146396Y-11033341D01*
X17146396Y-11033341D02*
X17213063Y-10890484D01*
X17213063Y-10890484D02*
X17213063Y-11090484D01*
X17394015Y-11090484D02*
X17394015Y-10985722D01*
X17394015Y-10985722D02*
X17384491Y-10966674D01*
X17384491Y-10966674D02*
X17365444Y-10957150D01*
X17365444Y-10957150D02*
X17327348Y-10957150D01*
X17327348Y-10957150D02*
X17308301Y-10966674D01*
X17394015Y-11080960D02*
X17374967Y-11090484D01*
X17374967Y-11090484D02*
X17327348Y-11090484D01*
X17327348Y-11090484D02*
X17308301Y-11080960D01*
X17308301Y-11080960D02*
X17298777Y-11061912D01*
X17298777Y-11061912D02*
X17298777Y-11042865D01*
X17298777Y-11042865D02*
X17308301Y-11023817D01*
X17308301Y-11023817D02*
X17327348Y-11014293D01*
X17327348Y-11014293D02*
X17374967Y-11014293D01*
X17374967Y-11014293D02*
X17394015Y-11004770D01*
X17489253Y-10957150D02*
X17489253Y-11157150D01*
X17489253Y-10966674D02*
X17508301Y-10957150D01*
X17508301Y-10957150D02*
X17546396Y-10957150D01*
X17546396Y-10957150D02*
X17565444Y-10966674D01*
X17565444Y-10966674D02*
X17574967Y-10976198D01*
X17574967Y-10976198D02*
X17584491Y-10995246D01*
X17584491Y-10995246D02*
X17584491Y-11052389D01*
X17584491Y-11052389D02*
X17574967Y-11071436D01*
X17574967Y-11071436D02*
X17565444Y-11080960D01*
X17565444Y-11080960D02*
X17546396Y-11090484D01*
X17546396Y-11090484D02*
X17508301Y-11090484D01*
X17508301Y-11090484D02*
X17489253Y-11080960D01*
X17670205Y-11071436D02*
X17679729Y-11080960D01*
X17679729Y-11080960D02*
X17670205Y-11090484D01*
X17670205Y-11090484D02*
X17660682Y-11080960D01*
X17660682Y-11080960D02*
X17670205Y-11071436D01*
X17670205Y-11071436D02*
X17670205Y-11090484D01*
X17670205Y-10966674D02*
X17679729Y-10976198D01*
X17679729Y-10976198D02*
X17670205Y-10985722D01*
X17670205Y-10985722D02*
X17660682Y-10976198D01*
X17660682Y-10976198D02*
X17670205Y-10966674D01*
X17670205Y-10966674D02*
X17670205Y-10985722D01*
M02*
