%TF.GenerationSoftware,KiCad,Pcbnew,8.0.9-8.0.9-0~ubuntu24.04.1*%
%TF.CreationDate,2025-04-27T19:31:52+05:30*%
%TF.ProjectId,ch552ICSPUPDI,63683535-3249-4435-9350-555044492e6b,rev?*%
%TF.SameCoordinates,Original*%
%TF.FileFunction,Soldermask,Top*%
%TF.FilePolarity,Negative*%
%FSLAX46Y46*%
G04 Gerber Fmt 4.6, Leading zero omitted, Abs format (unit mm)*
G04 Created by KiCad (PCBNEW 8.0.9-8.0.9-0~ubuntu24.04.1) date 2025-04-27 19:31:52*
%MOMM*%
%LPD*%
G01*
G04 APERTURE LIST*
G04 Aperture macros list*
%AMRoundRect*
0 Rectangle with rounded corners*
0 $1 Rounding radius*
0 $2 $3 $4 $5 $6 $7 $8 $9 X,Y pos of 4 corners*
0 Add a 4 corners polygon primitive as box body*
4,1,4,$2,$3,$4,$5,$6,$7,$8,$9,$2,$3,0*
0 Add four circle primitives for the rounded corners*
1,1,$1+$1,$2,$3*
1,1,$1+$1,$4,$5*
1,1,$1+$1,$6,$7*
1,1,$1+$1,$8,$9*
0 Add four rect primitives between the rounded corners*
20,1,$1+$1,$2,$3,$4,$5,0*
20,1,$1+$1,$4,$5,$6,$7,0*
20,1,$1+$1,$6,$7,$8,$9,0*
20,1,$1+$1,$8,$9,$2,$3,0*%
G04 Aperture macros list end*
%ADD10RoundRect,0.237500X-0.237500X0.300000X-0.237500X-0.300000X0.237500X-0.300000X0.237500X0.300000X0*%
%ADD11RoundRect,0.250000X0.412500X0.650000X-0.412500X0.650000X-0.412500X-0.650000X0.412500X-0.650000X0*%
%ADD12R,1.700000X1.700000*%
%ADD13O,1.700000X1.700000*%
%ADD14RoundRect,0.160000X-0.160000X0.197500X-0.160000X-0.197500X0.160000X-0.197500X0.160000X0.197500X0*%
%ADD15RoundRect,0.375000X0.625000X0.375000X-0.625000X0.375000X-0.625000X-0.375000X0.625000X-0.375000X0*%
%ADD16RoundRect,0.500000X0.500000X1.400000X-0.500000X1.400000X-0.500000X-1.400000X0.500000X-1.400000X0*%
%ADD17R,0.450000X1.380000*%
%ADD18R,1.650000X1.300000*%
%ADD19R,1.425000X1.550000*%
%ADD20R,1.800000X1.900000*%
%ADD21R,1.000000X1.900000*%
%ADD22RoundRect,0.137500X-0.662500X-0.137500X0.662500X-0.137500X0.662500X0.137500X-0.662500X0.137500X0*%
%ADD23RoundRect,0.237500X-0.237500X0.287500X-0.237500X-0.287500X0.237500X-0.287500X0.237500X0.287500X0*%
%ADD24RoundRect,0.250000X-0.650000X0.412500X-0.650000X-0.412500X0.650000X-0.412500X0.650000X0.412500X0*%
%ADD25R,0.900000X1.700000*%
%ADD26RoundRect,0.237500X0.300000X0.237500X-0.300000X0.237500X-0.300000X-0.237500X0.300000X-0.237500X0*%
%ADD27RoundRect,0.250000X-0.350000X-0.450000X0.350000X-0.450000X0.350000X0.450000X-0.350000X0.450000X0*%
G04 APERTURE END LIST*
D10*
%TO.C,C3*%
X173510000Y-95734998D03*
X173510000Y-97460000D03*
%TD*%
D11*
%TO.C,C5*%
X175675000Y-90980000D03*
X172550000Y-90980000D03*
%TD*%
D12*
%TO.C,J4*%
X163310000Y-103940000D03*
D13*
X163310000Y-101400000D03*
X163310000Y-98860001D03*
%TD*%
D14*
%TO.C,R4*%
X166120000Y-97600000D03*
X166120000Y-98795000D03*
%TD*%
D15*
%TO.C,U2*%
X179130000Y-88480000D03*
X179129999Y-86180000D03*
D16*
X172830001Y-86180000D03*
D15*
X179130000Y-83880000D03*
%TD*%
D14*
%TO.C,R1*%
X164490000Y-81545000D03*
X164490000Y-82740000D03*
%TD*%
D12*
%TO.C,J2*%
X178590000Y-96809999D03*
D13*
X178590000Y-94269999D03*
X178590000Y-91730000D03*
%TD*%
D17*
%TO.C,J1*%
X171620000Y-77970001D03*
X170970000Y-77970000D03*
X170320000Y-77970001D03*
X169670000Y-77970000D03*
X169020000Y-77970001D03*
D18*
X173695000Y-75310000D03*
D19*
X172807500Y-77885001D03*
D20*
X171470000Y-75310001D03*
D21*
X168770000Y-75310000D03*
D19*
X167832500Y-77885001D03*
D18*
X166945000Y-75310000D03*
%TD*%
D11*
%TO.C,C4*%
X179435000Y-81280000D03*
X176310000Y-81280000D03*
%TD*%
D22*
%TO.C,U1*%
X162860000Y-85830000D03*
X162860000Y-87100000D03*
X162860000Y-88370000D03*
X162860000Y-89640000D03*
X162860000Y-90910000D03*
X162860000Y-92180000D03*
X162860000Y-93450000D03*
X162860000Y-94720000D03*
X168160000Y-94720000D03*
X168160000Y-93450000D03*
X168160000Y-92180000D03*
X168160000Y-90910000D03*
X168160000Y-89640000D03*
X168160000Y-88370000D03*
X168160000Y-87100000D03*
X168160000Y-85830000D03*
%TD*%
D23*
%TO.C,D1*%
X164490000Y-78450002D03*
X164490000Y-80200000D03*
%TD*%
D24*
%TO.C,C2*%
X175490000Y-95080000D03*
X175490000Y-98205000D03*
%TD*%
D25*
%TO.C,SW1*%
X168370000Y-80850000D03*
X171770000Y-80850000D03*
%TD*%
D26*
%TO.C,C1*%
X175375002Y-92900000D03*
X173650000Y-92900000D03*
%TD*%
D27*
%TO.C,R3*%
X166680000Y-83600000D03*
X168680000Y-83600000D03*
%TD*%
D23*
%TO.C,D2*%
X162840000Y-78480002D03*
X162840000Y-80230000D03*
%TD*%
D14*
%TO.C,R2*%
X162840000Y-81575000D03*
X162840000Y-82770000D03*
%TD*%
D12*
%TO.C,J3*%
X171210000Y-103940000D03*
D13*
X171210000Y-101400000D03*
X173750000Y-103940000D03*
X173750000Y-101400000D03*
X176289999Y-103940000D03*
X176290000Y-101400000D03*
%TD*%
M02*
