%TF.GenerationSoftware,KiCad,Pcbnew,8.0.9-8.0.9-0~ubuntu24.04.1*%
%TF.CreationDate,2025-04-27T17:07:27+05:30*%
%TF.ProjectId,Panel,50616e65-6c2e-46b6-9963-61645f706362,rev?*%
%TF.SameCoordinates,PX77afa60PY1312d00*%
%TF.FileFunction,Soldermask,Top*%
%TF.FilePolarity,Negative*%
%FSLAX46Y46*%
G04 Gerber Fmt 4.6, Leading zero omitted, Abs format (unit mm)*
G04 Created by KiCad (PCBNEW 8.0.9-8.0.9-0~ubuntu24.04.1) date 2025-04-27 17:07:27*
%MOMM*%
%LPD*%
G01*
G04 APERTURE LIST*
G04 Aperture macros list*
%AMRoundRect*
0 Rectangle with rounded corners*
0 $1 Rounding radius*
0 $2 $3 $4 $5 $6 $7 $8 $9 X,Y pos of 4 corners*
0 Add a 4 corners polygon primitive as box body*
4,1,4,$2,$3,$4,$5,$6,$7,$8,$9,$2,$3,0*
0 Add four circle primitives for the rounded corners*
1,1,$1+$1,$2,$3*
1,1,$1+$1,$4,$5*
1,1,$1+$1,$6,$7*
1,1,$1+$1,$8,$9*
0 Add four rect primitives between the rounded corners*
20,1,$1+$1,$2,$3,$4,$5,0*
20,1,$1+$1,$4,$5,$6,$7,0*
20,1,$1+$1,$6,$7,$8,$9,0*
20,1,$1+$1,$8,$9,$2,$3,0*%
G04 Aperture macros list end*
%ADD10RoundRect,0.250000X-0.350000X-0.450000X0.350000X-0.450000X0.350000X0.450000X-0.350000X0.450000X0*%
%ADD11RoundRect,0.237500X-0.237500X0.287500X-0.237500X-0.287500X0.237500X-0.287500X0.237500X0.287500X0*%
%ADD12R,0.450000X1.380000*%
%ADD13R,1.650000X1.300000*%
%ADD14R,1.425000X1.550000*%
%ADD15R,1.800000X1.900000*%
%ADD16R,1.000000X1.900000*%
%ADD17RoundRect,0.250000X0.412500X0.650000X-0.412500X0.650000X-0.412500X-0.650000X0.412500X-0.650000X0*%
%ADD18R,1.700000X1.700000*%
%ADD19O,1.700000X1.700000*%
%ADD20RoundRect,0.160000X-0.160000X0.197500X-0.160000X-0.197500X0.160000X-0.197500X0.160000X0.197500X0*%
%ADD21RoundRect,0.375000X0.625000X0.375000X-0.625000X0.375000X-0.625000X-0.375000X0.625000X-0.375000X0*%
%ADD22RoundRect,0.500000X0.500000X1.400000X-0.500000X1.400000X-0.500000X-1.400000X0.500000X-1.400000X0*%
%ADD23RoundRect,0.237500X-0.237500X0.300000X-0.237500X-0.300000X0.237500X-0.300000X0.237500X0.300000X0*%
%ADD24RoundRect,0.250000X-0.650000X0.412500X-0.650000X-0.412500X0.650000X-0.412500X0.650000X0.412500X0*%
%ADD25R,0.900000X1.700000*%
%ADD26RoundRect,0.137500X-0.662500X-0.137500X0.662500X-0.137500X0.662500X0.137500X-0.662500X0.137500X0*%
%ADD27RoundRect,0.237500X0.300000X0.237500X-0.300000X0.237500X-0.300000X-0.237500X0.300000X-0.237500X0*%
G04 APERTURE END LIST*
D10*
%TO.C,R3*%
X30250000Y-45860000D03*
X32250000Y-45860000D03*
%TD*%
D11*
%TO.C,D2*%
X26410000Y-40740002D03*
X26410000Y-42490000D03*
%TD*%
D12*
%TO.C,J1*%
X35190000Y-40230001D03*
X34540000Y-40230000D03*
X33890000Y-40230001D03*
X33240000Y-40230000D03*
X32590000Y-40230001D03*
D13*
X37265000Y-37570000D03*
D14*
X36377500Y-40145001D03*
D15*
X35040000Y-37570001D03*
D16*
X32340000Y-37570000D03*
D14*
X31402500Y-40145001D03*
D13*
X30515000Y-37570000D03*
%TD*%
D12*
%TO.C,J1*%
X11190000Y-40230001D03*
X10540000Y-40230000D03*
X9890000Y-40230001D03*
X9240000Y-40230000D03*
X8590000Y-40230001D03*
D13*
X13265000Y-37570000D03*
D14*
X12377500Y-40145001D03*
D15*
X11040000Y-37570001D03*
D16*
X8340000Y-37570000D03*
D14*
X7402500Y-40145001D03*
D13*
X6515000Y-37570000D03*
%TD*%
D17*
%TO.C,C5*%
X15245000Y-53240000D03*
X12120000Y-53240000D03*
%TD*%
D18*
%TO.C,J4*%
X2880000Y-66200000D03*
D19*
X2880000Y-63660000D03*
X2880000Y-61120001D03*
%TD*%
D17*
%TO.C,C5*%
X39245000Y-17240000D03*
X36120000Y-17240000D03*
%TD*%
%TO.C,C4*%
X43005000Y-7540000D03*
X39880000Y-7540000D03*
%TD*%
D20*
%TO.C,R4*%
X5690000Y-23860000D03*
X5690000Y-25055000D03*
%TD*%
D21*
%TO.C,U2*%
X18700000Y-50740000D03*
X18699999Y-48440000D03*
D22*
X12400001Y-48440000D03*
D21*
X18700000Y-46140000D03*
%TD*%
D17*
%TO.C,C5*%
X15245000Y-17240000D03*
X12120000Y-17240000D03*
%TD*%
D20*
%TO.C,R4*%
X29690000Y-59860000D03*
X29690000Y-61055000D03*
%TD*%
D17*
%TO.C,C5*%
X39245000Y-53240000D03*
X36120000Y-53240000D03*
%TD*%
D23*
%TO.C,C3*%
X13080000Y-21994998D03*
X13080000Y-23720000D03*
%TD*%
D17*
%TO.C,C4*%
X43005000Y-43540000D03*
X39880000Y-43540000D03*
%TD*%
D11*
%TO.C,D1*%
X28060000Y-4710002D03*
X28060000Y-6460000D03*
%TD*%
D12*
%TO.C,J1*%
X11190000Y-4230001D03*
X10540000Y-4230000D03*
X9890000Y-4230001D03*
X9240000Y-4230000D03*
X8590000Y-4230001D03*
D13*
X13265000Y-1570000D03*
D14*
X12377500Y-4145001D03*
D15*
X11040000Y-1570001D03*
D16*
X8340000Y-1570000D03*
D14*
X7402500Y-4145001D03*
D13*
X6515000Y-1570000D03*
%TD*%
D10*
%TO.C,R3*%
X6250000Y-45860000D03*
X8250000Y-45860000D03*
%TD*%
D20*
%TO.C,R2*%
X26410000Y-43835000D03*
X26410000Y-45030000D03*
%TD*%
D12*
%TO.C,J1*%
X35190000Y-4230001D03*
X34540000Y-4230000D03*
X33890000Y-4230001D03*
X33240000Y-4230000D03*
X32590000Y-4230001D03*
D13*
X37265000Y-1570000D03*
D14*
X36377500Y-4145001D03*
D15*
X35040000Y-1570001D03*
D16*
X32340000Y-1570000D03*
D14*
X31402500Y-4145001D03*
D13*
X30515000Y-1570000D03*
%TD*%
D24*
%TO.C,C2*%
X39060000Y-21340000D03*
X39060000Y-24465000D03*
%TD*%
D10*
%TO.C,R3*%
X30250000Y-9860000D03*
X32250000Y-9860000D03*
%TD*%
D25*
%TO.C,SW1*%
X7940000Y-43110000D03*
X11340000Y-43110000D03*
%TD*%
D20*
%TO.C,R2*%
X2410000Y-43835000D03*
X2410000Y-45030000D03*
%TD*%
D18*
%TO.C,J2*%
X18160000Y-23069999D03*
D19*
X18160000Y-20529999D03*
X18160000Y-17990000D03*
%TD*%
D26*
%TO.C,U1*%
X2430000Y-48090000D03*
X2430000Y-49360000D03*
X2430000Y-50630000D03*
X2430000Y-51900000D03*
X2430000Y-53170000D03*
X2430000Y-54440000D03*
X2430000Y-55710000D03*
X2430000Y-56980000D03*
X7730000Y-56980000D03*
X7730000Y-55710000D03*
X7730000Y-54440000D03*
X7730000Y-53170000D03*
X7730000Y-51900000D03*
X7730000Y-50630000D03*
X7730000Y-49360000D03*
X7730000Y-48090000D03*
%TD*%
D20*
%TO.C,R2*%
X2410000Y-7835000D03*
X2410000Y-9030000D03*
%TD*%
D11*
%TO.C,D2*%
X2410000Y-40740002D03*
X2410000Y-42490000D03*
%TD*%
D23*
%TO.C,C3*%
X37080000Y-57994998D03*
X37080000Y-59720000D03*
%TD*%
D18*
%TO.C,J2*%
X42160000Y-59069999D03*
D19*
X42160000Y-56529999D03*
X42160000Y-53990000D03*
%TD*%
D27*
%TO.C,C1*%
X38945002Y-19160000D03*
X37220000Y-19160000D03*
%TD*%
D25*
%TO.C,SW1*%
X31940000Y-7110000D03*
X35340000Y-7110000D03*
%TD*%
D10*
%TO.C,R3*%
X6250000Y-9860000D03*
X8250000Y-9860000D03*
%TD*%
D20*
%TO.C,R4*%
X29690000Y-23860000D03*
X29690000Y-25055000D03*
%TD*%
D17*
%TO.C,C4*%
X19005000Y-43540000D03*
X15880000Y-43540000D03*
%TD*%
D23*
%TO.C,C3*%
X37080000Y-21994998D03*
X37080000Y-23720000D03*
%TD*%
D21*
%TO.C,U2*%
X18700000Y-14740000D03*
X18699999Y-12440000D03*
D22*
X12400001Y-12440000D03*
D21*
X18700000Y-10140000D03*
%TD*%
D11*
%TO.C,D1*%
X4060000Y-4710002D03*
X4060000Y-6460000D03*
%TD*%
D20*
%TO.C,R1*%
X4060000Y-7805000D03*
X4060000Y-9000000D03*
%TD*%
D18*
%TO.C,J4*%
X26880000Y-30200000D03*
D19*
X26880000Y-27660000D03*
X26880000Y-25120001D03*
%TD*%
D26*
%TO.C,U1*%
X26430000Y-12090000D03*
X26430000Y-13360000D03*
X26430000Y-14630000D03*
X26430000Y-15900000D03*
X26430000Y-17170000D03*
X26430000Y-18440000D03*
X26430000Y-19710000D03*
X26430000Y-20980000D03*
X31730000Y-20980000D03*
X31730000Y-19710000D03*
X31730000Y-18440000D03*
X31730000Y-17170000D03*
X31730000Y-15900000D03*
X31730000Y-14630000D03*
X31730000Y-13360000D03*
X31730000Y-12090000D03*
%TD*%
D24*
%TO.C,C2*%
X15060000Y-21340000D03*
X15060000Y-24465000D03*
%TD*%
D11*
%TO.C,D1*%
X4060000Y-40710002D03*
X4060000Y-42460000D03*
%TD*%
D24*
%TO.C,C2*%
X15060000Y-57340000D03*
X15060000Y-60465000D03*
%TD*%
%TO.C,C2*%
X39060000Y-57340000D03*
X39060000Y-60465000D03*
%TD*%
D20*
%TO.C,R1*%
X28060000Y-43805000D03*
X28060000Y-45000000D03*
%TD*%
%TO.C,R1*%
X28060000Y-7805000D03*
X28060000Y-9000000D03*
%TD*%
D21*
%TO.C,U2*%
X42700000Y-50740000D03*
X42699999Y-48440000D03*
D22*
X36400001Y-48440000D03*
D21*
X42700000Y-46140000D03*
%TD*%
D18*
%TO.C,J4*%
X2880000Y-30200000D03*
D19*
X2880000Y-27660000D03*
X2880000Y-25120001D03*
%TD*%
D25*
%TO.C,SW1*%
X7940000Y-7110000D03*
X11340000Y-7110000D03*
%TD*%
D20*
%TO.C,R1*%
X4060000Y-43805000D03*
X4060000Y-45000000D03*
%TD*%
%TO.C,R2*%
X26410000Y-7835000D03*
X26410000Y-9030000D03*
%TD*%
D18*
%TO.C,J2*%
X42160000Y-23069999D03*
D19*
X42160000Y-20529999D03*
X42160000Y-17990000D03*
%TD*%
D11*
%TO.C,D2*%
X26410000Y-4740002D03*
X26410000Y-6490000D03*
%TD*%
D27*
%TO.C,C1*%
X14945002Y-55160000D03*
X13220000Y-55160000D03*
%TD*%
D11*
%TO.C,D1*%
X28060000Y-40710002D03*
X28060000Y-42460000D03*
%TD*%
D20*
%TO.C,R4*%
X5690000Y-59860000D03*
X5690000Y-61055000D03*
%TD*%
D26*
%TO.C,U1*%
X2430000Y-12090000D03*
X2430000Y-13360000D03*
X2430000Y-14630000D03*
X2430000Y-15900000D03*
X2430000Y-17170000D03*
X2430000Y-18440000D03*
X2430000Y-19710000D03*
X2430000Y-20980000D03*
X7730000Y-20980000D03*
X7730000Y-19710000D03*
X7730000Y-18440000D03*
X7730000Y-17170000D03*
X7730000Y-15900000D03*
X7730000Y-14630000D03*
X7730000Y-13360000D03*
X7730000Y-12090000D03*
%TD*%
D21*
%TO.C,U2*%
X42700000Y-14740000D03*
X42699999Y-12440000D03*
D22*
X36400001Y-12440000D03*
D21*
X42700000Y-10140000D03*
%TD*%
D11*
%TO.C,D2*%
X2410000Y-4740002D03*
X2410000Y-6490000D03*
%TD*%
D17*
%TO.C,C4*%
X19005000Y-7540000D03*
X15880000Y-7540000D03*
%TD*%
D26*
%TO.C,U1*%
X26430000Y-48090000D03*
X26430000Y-49360000D03*
X26430000Y-50630000D03*
X26430000Y-51900000D03*
X26430000Y-53170000D03*
X26430000Y-54440000D03*
X26430000Y-55710000D03*
X26430000Y-56980000D03*
X31730000Y-56980000D03*
X31730000Y-55710000D03*
X31730000Y-54440000D03*
X31730000Y-53170000D03*
X31730000Y-51900000D03*
X31730000Y-50630000D03*
X31730000Y-49360000D03*
X31730000Y-48090000D03*
%TD*%
D23*
%TO.C,C3*%
X13080000Y-57994998D03*
X13080000Y-59720000D03*
%TD*%
D27*
%TO.C,C1*%
X38945002Y-55160000D03*
X37220000Y-55160000D03*
%TD*%
D18*
%TO.C,J4*%
X26880000Y-66200000D03*
D19*
X26880000Y-63660000D03*
X26880000Y-61120001D03*
%TD*%
D25*
%TO.C,SW1*%
X31940000Y-43110000D03*
X35340000Y-43110000D03*
%TD*%
D27*
%TO.C,C1*%
X14945002Y-19160000D03*
X13220000Y-19160000D03*
%TD*%
D18*
%TO.C,J2*%
X18160000Y-59069999D03*
D19*
X18160000Y-56529999D03*
X18160000Y-53990000D03*
%TD*%
D18*
%TO.C,J3*%
X10780000Y-30200000D03*
D19*
X10780000Y-27660000D03*
X13320000Y-30200000D03*
X13320000Y-27660000D03*
X15859999Y-30200000D03*
X15860000Y-27660000D03*
%TD*%
D18*
%TO.C,J3*%
X34780000Y-66200000D03*
D19*
X34780000Y-63660000D03*
X37320000Y-66200000D03*
X37320000Y-63660000D03*
X39859999Y-66200000D03*
X39860000Y-63660000D03*
%TD*%
D18*
%TO.C,J3*%
X34780000Y-30200000D03*
D19*
X34780000Y-27660000D03*
X37320000Y-30200000D03*
X37320000Y-27660000D03*
X39859999Y-30200000D03*
X39860000Y-27660000D03*
%TD*%
D18*
%TO.C,J3*%
X10780000Y-66200000D03*
D19*
X10780000Y-63660000D03*
X13320000Y-66200000D03*
X13320000Y-63660000D03*
X15859999Y-66200000D03*
X15860000Y-63660000D03*
%TD*%
M02*
